<?xml version="1.0" standalone="no"?>
<!DOCTYPE svg PUBLIC "-//W3C//DTD SVG 20010904//EN"
 "http://www.w3.org/TR/2001/REC-SVG-20010904/DTD/svg10.dtd">
<svg version="1.0" xmlns="http://www.w3.org/2000/svg"
 width="1000.000000pt" height="1000.000000pt" viewBox="0 0 1000.000000 1000.000000"
 preserveAspectRatio="xMidYMid meet">
<metadata>
Created by potrace 1.14, written by Peter Selinger 2001-2017
</metadata>
<g transform="translate(0.000000,1000.000000) scale(0.100000,-0.100000)"
fill="#000000" stroke="none">
<path d="M4317 9987 c-3 -9 -23 -13 -61 -13 -31 1 -56 -3 -56 -8 0 -5 -7 -3
-15 4 -10 9 -15 9 -15 1 0 -6 -5 -11 -11 -11 -5 0 -7 6 -4 13 4 6 -1 3 -9 -7
-12 -15 -16 -16 -16 -5 0 12 -2 12 -10 -1 -9 -13 -10 -13 -10 0 0 13 -1 13
-10 0 -9 -13 -10 -13 -10 0 0 12 -2 13 -9 1 -5 -7 -14 -10 -20 -7 -6 4 -11 3
-11 -2 0 -5 -23 -8 -50 -7 -41 1 -50 -1 -45 -13 4 -12 3 -13 -10 -2 -12 10
-15 10 -15 -1 0 -11 -2 -11 -10 1 -5 8 -10 10 -10 5 0 -6 -12 -10 -27 -10 -16
1 -32 -2 -38 -6 -5 -4 -23 -10 -40 -13 -16 -3 -43 -8 -58 -11 -21 -4 -27 -2
-21 6 4 8 3 9 -5 5 -6 -4 -9 -11 -6 -16 3 -5 1 -11 -5 -15 -5 -3 -10 -2 -10 4
0 7 -8 7 -26 1 -33 -13 -37 -13 -28 2 4 7 3 8 -5 4 -6 -4 -9 -11 -6 -16 3 -5
1 -11 -5 -15 -5 -3 -10 -2 -10 3 0 5 -7 9 -15 9 -8 0 -12 -4 -9 -9 3 -4 -9 -8
-26 -8 -17 0 -29 -3 -27 -7 3 -5 -9 -9 -25 -10 -17 -1 -37 -8 -46 -15 -12 -10
-14 -10 -8 -1 5 9 2 11 -8 7 -9 -3 -14 -10 -11 -14 3 -4 -13 -7 -35 -6 -30 2
-37 -1 -29 -10 8 -10 6 -13 -8 -13 -10 0 -29 -2 -43 -4 -14 -3 -29 -5 -33 -6
-5 0 -5 -7 -1 -13 4 -7 4 -10 -1 -6 -4 4 -15 2 -23 -5 -9 -6 -13 -7 -9 -1 3 6
0 11 -8 11 -8 0 -12 -4 -9 -9 5 -7 -10 -12 -28 -9 -5 0 -8 -4 -8 -9 0 -5 -3
-9 -7 -9 -5 1 -11 0 -15 -1 -13 -4 -27 -7 -39 -9 -5 0 -7 -5 -4 -11 3 -6 -1
-7 -9 -4 -9 3 -16 1 -16 -4 0 -6 -9 -9 -20 -7 -11 2 -20 0 -20 -6 0 -5 -6 -8
-12 -6 -7 1 -12 -3 -11 -10 2 -7 -6 -10 -17 -8 -11 2 -25 -2 -32 -9 -7 -7 -19
-11 -27 -8 -8 3 -11 0 -7 -7 5 -7 -1 -11 -13 -11 -12 0 -21 -5 -21 -11 0 -5
-4 -8 -9 -5 -9 6 -101 -41 -112 -57 -3 -5 -9 -8 -13 -8 -25 4 -36 0 -30 -11 5
-7 2 -9 -9 -5 -9 3 -18 0 -21 -9 -3 -9 -11 -12 -16 -9 -6 4 -18 -3 -28 -15 -9
-11 -27 -22 -39 -23 -12 0 -19 -5 -17 -9 3 -4 -2 -8 -10 -8 -9 0 -16 -5 -16
-11 0 -5 -4 -8 -9 -4 -6 3 -14 -3 -20 -12 -5 -10 -13 -15 -17 -11 -4 4 -13 0
-21 -10 -10 -11 -12 -12 -8 -2 4 10 2 9 -8 -2 -8 -10 -18 -18 -23 -18 -5 0
-21 -11 -36 -24 -14 -14 -29 -22 -32 -19 -3 4 -6 0 -6 -7 0 -7 -3 -11 -6 -7
-3 3 -15 -3 -27 -13 -11 -11 -25 -17 -30 -13 -6 3 -8 2 -5 -3 3 -5 0 -15 -8
-22 -11 -10 -14 -10 -14 0 -1 7 -7 2 -15 -12 -8 -14 -14 -21 -15 -16 0 6 -7 1
-16 -10 -8 -10 -13 -12 -9 -4 4 8 -2 5 -13 -7 -11 -13 -25 -23 -31 -23 -7 0
-14 -7 -17 -15 -4 -8 -10 -12 -15 -9 -5 3 -9 0 -9 -6 0 -6 -4 -8 -10 -5 -6 4
-7 -1 -3 -11 4 -11 3 -15 -5 -10 -6 3 -20 -4 -31 -16 -12 -12 -21 -19 -21 -15
0 6 -11 -3 -90 -75 -17 -15 -30 -24 -30 -20 0 4 -5 -1 -11 -11 -6 -9 -14 -15
-20 -12 -8 6 -13 -8 -10 -28 0 -4 -2 -6 -6 -5 -15 3 -43 -14 -37 -23 3 -5 -5
-9 -17 -9 -12 0 -20 -3 -17 -6 7 -7 -59 -74 -72 -74 -6 0 -10 -7 -10 -15 0 -9
-6 -12 -17 -8 -10 4 -14 2 -10 -4 7 -11 -45 -63 -63 -63 -5 0 -7 -8 -3 -17 3
-10 3 -15 -1 -11 -9 8 -86 -67 -86 -83 0 -6 -4 -7 -10 -4 -5 3 -10 1 -10 -5 0
-6 -5 -8 -10 -5 -6 4 -9 3 -8 -2 4 -12 -38 -64 -46 -56 -3 3 -6 -1 -6 -10 0
-9 -11 -24 -25 -33 -14 -9 -24 -19 -21 -21 2 -2 -11 -20 -30 -38 -19 -19 -34
-39 -34 -45 0 -6 -4 -8 -10 -5 -5 3 -10 1 -10 -5 0 -6 -11 -22 -25 -35 -13
-14 -22 -25 -19 -25 3 0 -5 -11 -18 -24 -13 -13 -32 -36 -43 -52 -11 -15 -28
-36 -37 -46 -10 -10 -18 -22 -18 -28 0 -5 -5 -10 -11 -10 -5 0 -7 -4 -4 -10 3
-5 2 -10 -3 -10 -5 0 -29 -28 -53 -62 -24 -35 -47 -64 -51 -66 -4 -2 -8 -10
-8 -18 0 -8 -4 -14 -10 -14 -5 0 -10 -6 -10 -14 0 -8 -4 -16 -8 -18 -5 -1 -31
-38 -59 -81 -27 -42 -53 -74 -57 -70 -4 4 -4 1 -1 -8 3 -8 -4 -25 -15 -37 -11
-12 -18 -22 -15 -22 4 0 -1 -7 -9 -16 -9 -8 -14 -20 -11 -25 4 -5 -1 -9 -10
-9 -9 0 -13 -4 -10 -10 3 -5 1 -10 -5 -10 -6 0 -8 -4 -5 -10 3 -5 1 -10 -5
-10 -6 0 -8 -4 -5 -10 3 -5 1 -10 -5 -10 -6 0 -9 -4 -5 -9 3 -6 -3 -14 -12
-20 -10 -6 -13 -11 -8 -11 6 0 5 -4 -2 -8 -6 -4 -13 -14 -15 -22 -2 -8 -10
-21 -18 -28 -13 -12 -13 -13 0 -7 10 4 9 2 -2 -8 -10 -8 -18 -19 -18 -26 0 -6
-5 -11 -11 -11 -5 0 -8 -4 -4 -9 3 -5 1 -12 -5 -16 -6 -4 -8 -11 -5 -16 4 -5
-1 -9 -10 -9 -9 0 -14 -4 -10 -9 3 -5 0 -13 -6 -16 -5 -4 -8 -13 -5 -20 2 -7
-2 -16 -11 -19 -8 -4 -13 -13 -10 -20 3 -8 0 -17 -7 -19 -8 -3 -16 -18 -20
-32 -4 -15 -14 -34 -21 -42 -8 -8 -15 -23 -15 -34 0 -11 -7 -22 -15 -25 -8 -4
-12 -10 -9 -15 3 -5 0 -9 -6 -9 -6 0 -9 -4 -5 -9 3 -5 -2 -16 -10 -24 -11 -12
-12 -17 -2 -20 9 -4 9 -6 -1 -6 -7 -1 -10 -5 -7 -11 3 -5 1 -10 -4 -10 -6 0
-11 -9 -11 -21 0 -11 -5 -17 -10 -14 -9 5 -15 -15 -11 -37 0 -5 -4 -8 -10 -8
-6 0 -9 -7 -5 -15 3 -8 2 -15 -2 -15 -4 0 -12 -11 -19 -25 -8 -18 -8 -23 0
-18 7 4 2 -6 -11 -21 -12 -16 -19 -32 -16 -37 3 -5 1 -9 -5 -9 -5 0 -8 -9 -6
-20 2 -11 0 -18 -6 -15 -5 4 -9 3 -10 -2 -2 -18 -8 -40 -20 -68 -7 -16 -12
-33 -11 -37 1 -5 -3 -8 -10 -8 -6 0 -8 -3 -5 -7 4 -3 2 -12 -4 -20 -6 -7 -8
-13 -4 -13 4 0 2 -7 -5 -15 -6 -8 -8 -20 -4 -26 4 -8 3 -9 -4 -5 -8 4 -12 0
-12 -11 0 -11 -6 -25 -12 -32 -9 -9 -9 -12 -1 -7 6 3 3 -11 -7 -31 -10 -21
-16 -41 -13 -45 2 -5 -1 -8 -7 -8 -6 0 -8 -4 -5 -10 3 -5 2 -10 -3 -10 -5 0
-8 -10 -7 -22 1 -13 -2 -26 -7 -29 -9 -6 -16 -28 -17 -57 -1 -7 -4 -11 -9 -9
-4 3 -8 -11 -10 -31 -1 -19 -7 -41 -13 -48 -6 -7 -8 -17 -5 -23 4 -5 1 -15 -6
-23 -7 -7 -13 -19 -14 -25 -1 -7 -2 -22 -2 -34 -1 -11 -5 -18 -9 -16 -5 3 -8
-9 -8 -26 0 -18 -6 -37 -15 -44 -12 -10 -12 -12 -1 -13 9 0 10 -4 4 -12 -6 -7
-9 -23 -8 -35 1 -14 -3 -19 -12 -16 -10 4 -13 -1 -9 -21 3 -16 0 -26 -7 -26
-7 0 -6 -4 3 -10 8 -5 10 -10 4 -10 -6 0 -11 -6 -12 -12 -1 -7 -3 -24 -4 -38
-2 -14 -7 -28 -12 -31 -4 -4 -10 -25 -11 -48 -2 -23 -9 -49 -17 -58 -11 -14
-11 -16 2 -8 12 7 13 6 4 -6 -6 -8 -12 -21 -12 -29 0 -8 -4 -28 -8 -45 -3 -16
-7 -40 -7 -52 -1 -13 -4 -23 -8 -23 -5 0 -6 -9 -4 -20 2 -11 0 -22 -4 -25 -5
-2 -7 -16 -6 -30 2 -14 0 -25 -5 -25 -4 0 -6 -9 -3 -20 3 -11 1 -20 -3 -20 -5
0 -10 -26 -11 -57 -1 -31 -6 -59 -10 -62 -11 -7 -10 -22 0 -38 5 -8 4 -13 -2
-13 -6 0 -10 -3 -9 -7 1 -5 -2 -35 -7 -68 -5 -33 -8 -64 -6 -69 1 -4 -3 -14
-9 -20 -5 -7 -7 -16 -3 -20 10 -10 13 -37 3 -31 -13 8 -21 -25 -10 -44 6 -12
5 -22 -2 -29 -9 -9 -9 -12 1 -12 7 0 9 -5 4 -12 -4 -7 -8 -26 -10 -43 -1 -16
-5 -57 -8 -90 -3 -33 -7 -85 -9 -117 -2 -31 -7 -61 -10 -66 -3 -6 -2 -13 4
-17 7 -4 7 -12 0 -25 -7 -13 -7 -21 0 -25 7 -4 8 -11 1 -18 -13 -17 -12 -649
2 -640 6 4 7 1 1 -8 -11 -18 -12 -39 -2 -61 5 -10 3 -18 -5 -21 -9 -4 -9 -6 1
-6 6 -1 12 -6 12 -12 0 -5 -4 -8 -8 -5 -5 3 -9 -1 -9 -9 0 -8 4 -12 8 -10 4 3
6 -20 5 -50 -1 -30 1 -55 6 -55 11 0 6 -23 -7 -32 -6 -5 -6 -8 2 -8 6 0 10 -9
8 -20 -2 -11 0 -20 5 -20 6 0 6 -10 0 -26 -7 -18 -7 -23 1 -18 8 4 9 -1 4 -16
-5 -17 -4 -21 5 -15 9 6 11 4 5 -6 -12 -19 -15 -59 -5 -59 4 0 7 -8 5 -17 -1
-10 2 -24 8 -30 6 -9 6 -13 -2 -13 -7 0 -8 -8 -2 -22 4 -13 7 -33 6 -46 -1
-12 2 -22 7 -22 5 0 5 -7 0 -16 -6 -10 -4 -29 3 -51 6 -19 11 -51 11 -73 -1
-21 3 -36 8 -33 5 4 7 -3 4 -15 -4 -13 -1 -22 5 -22 7 0 5 -5 -3 -10 -9 -6
-10 -10 -3 -10 6 0 11 -13 11 -28 -1 -15 5 -38 12 -51 9 -18 9 -22 0 -16 -9 5
-9 3 -2 -11 5 -11 8 -27 7 -36 -2 -10 1 -18 6 -18 4 0 6 -6 3 -14 -3 -8 -1
-17 5 -21 6 -3 11 -11 11 -16 0 -6 -5 -7 -11 -3 -7 4 -7 -1 1 -16 6 -12 9 -28
6 -36 -4 -10 -2 -12 6 -8 8 5 9 2 5 -9 -3 -10 -2 -17 3 -17 5 0 7 -7 4 -15 -4
-8 0 -23 7 -32 12 -14 12 -16 -1 -8 -13 8 -13 6 -2 -8 8 -9 11 -21 7 -27 -3
-5 -2 -10 4 -10 6 0 8 -7 5 -15 -4 -8 -1 -15 6 -15 10 0 10 -3 1 -14 -10 -11
-8 -17 6 -25 10 -6 12 -11 5 -11 -10 0 -10 -6 1 -27 8 -16 13 -38 12 -51 -1
-12 2 -22 7 -22 5 0 8 -10 6 -22 -2 -13 2 -22 8 -21 6 1 9 -10 6 -28 -2 -17 0
-29 7 -29 6 0 8 -7 4 -17 -4 -10 -2 -14 4 -10 7 5 9 0 6 -12 -3 -10 0 -22 7
-26 8 -5 7 -11 -2 -23 -10 -12 -10 -14 -1 -8 12 6 19 -18 14 -46 0 -5 3 -8 8
-8 5 0 12 -7 15 -16 3 -9 2 -12 -5 -8 -6 3 -4 -7 5 -24 8 -16 12 -32 9 -36 -4
-3 -1 -6 6 -6 7 0 10 -4 7 -9 -7 -10 16 -61 27 -61 5 0 5 -4 2 -10 -3 -5 -2
-10 4 -10 6 0 17 -12 25 -27 8 -16 17 -27 20 -25 15 6 26 1 24 -11 -2 -6 3
-11 11 -9 7 1 19 -2 27 -9 7 -6 19 -7 25 -3 8 5 9 3 4 -6 -6 -10 -4 -12 8 -7
9 3 19 2 23 -4 4 -6 11 -6 20 1 7 7 19 10 26 8 7 -3 18 0 25 6 39 34 41 36 46
23 3 -7 6 -4 6 6 1 9 7 16 14 15 6 -2 11 3 9 10 -1 6 5 12 14 12 8 0 13 4 10
9 -3 5 1 14 9 21 8 7 15 19 15 27 0 8 4 12 9 9 5 -3 9 0 8 7 -1 41 4 58 16 51
8 -5 8 -2 -2 9 -7 9 -9 17 -3 17 10 0 9 101 -3 119 -3 6 -1 11 5 11 7 0 6 6
-3 15 -9 8 -14 23 -13 32 2 10 -1 21 -6 24 -5 3 -10 20 -11 37 -1 18 -6 32
-11 32 -5 0 -6 3 -3 7 4 3 2 12 -5 20 -6 7 -8 16 -5 20 4 3 2 12 -3 18 -6 7
-11 24 -12 39 -1 14 -6 26 -10 26 -4 0 -5 9 -3 20 2 11 0 20 -4 20 -5 0 -7 10
-7 23 1 12 -1 27 -5 32 -4 6 -9 22 -11 35 -2 14 -7 31 -11 38 -5 6 -5 12 0 12
4 0 1 5 -7 10 -12 8 -12 10 -1 10 11 0 11 3 1 15 -7 8 -9 15 -5 15 4 0 1 8 -6
17 -12 15 -12 16 1 8 13 -8 13 -6 2 7 -7 9 -14 30 -14 47 -1 17 -5 31 -9 31
-4 0 -6 9 -4 20 2 11 0 20 -4 20 -4 0 -6 13 -5 30 1 16 -3 30 -8 30 -6 0 -4 8
3 17 10 11 10 14 2 9 -10 -5 -13 2 -13 28 0 19 -5 38 -10 41 -8 5 -7 11 1 21
11 13 5 19 -15 15 -5 -1 -4 4 2 12 7 8 10 16 7 19 -3 3 -6 21 -7 41 -1 20 -4
34 -8 32 -3 -2 -6 8 -7 23 -5 103 -9 142 -14 142 -13 0 -18 29 -7 36 7 5 8 2
3 -6 -5 -8 -4 -11 3 -6 7 4 7 14 -2 31 -7 14 -12 39 -10 55 2 16 -1 32 -7 35
-7 5 -6 12 2 21 9 11 9 14 -1 14 -10 0 -10 3 -1 14 7 8 8 17 3 20 -9 5 -13 46
-14 148 0 29 -4 45 -10 42 -6 -4 -5 3 1 15 9 16 9 21 -1 21 -9 0 -9 3 2 10 13
8 13 10 0 10 -10 0 -11 3 -2 12 6 6 8 18 3 27 -12 25 -12 453 0 445 6 -3 5 3
-2 14 -10 16 -10 23 0 35 7 9 8 18 3 21 -11 7 -9 66 2 84 4 7 2 12 -5 12 -8 0
-8 4 -2 13 6 6 9 35 9 62 -1 28 2 56 7 63 6 8 5 12 -3 12 -10 0 -10 3 -1 14 9
11 9 15 -1 19 -7 3 -8 6 -2 6 5 1 9 15 8 31 -1 17 3 30 8 30 6 0 5 6 -2 15 -9
11 -9 15 -1 15 8 0 9 5 1 19 -7 14 -7 22 1 26 6 4 8 13 5 21 -3 8 0 14 6 14 7
0 7 4 -1 14 -9 11 -9 16 0 21 8 6 7 10 -2 16 -12 7 -12 9 0 9 7 0 11 6 8 15
-4 8 -1 17 5 21 7 4 6 9 -3 15 -10 6 -10 9 -2 9 6 0 10 9 8 20 -2 11 2 20 8
20 7 0 6 4 -3 10 -8 5 -10 10 -5 10 6 0 10 12 9 28 0 15 4 30 10 34 7 5 7 8
-2 8 -8 0 -10 5 -5 13 4 6 8 27 10 46 1 19 7 38 15 42 11 7 11 9 0 9 -8 0 -10
5 -5 13 7 12 10 31 14 89 1 15 5 25 9 23 4 -2 6 11 5 30 -1 19 2 35 6 35 4 0
6 9 4 20 -2 11 -1 20 3 20 4 0 8 8 9 18 4 40 11 87 13 92 1 3 2 8 1 13 0 4 5
7 12 7 8 0 7 4 -3 10 -9 6 -11 10 -3 10 7 0 10 7 7 15 -4 8 -1 15 6 15 7 0 10
7 6 16 -3 9 -3 21 1 27 8 13 13 40 16 79 0 15 5 24 9 22 4 -3 8 -2 9 3 1 11 7
45 11 65 2 10 7 20 10 24 4 3 4 12 1 20 -3 8 1 14 8 14 11 0 11 3 -1 10 -8 5
-10 10 -4 10 13 0 39 82 38 117 -1 12 3 20 7 17 8 -5 14 17 10 39 0 4 3 7 7 7
4 0 8 8 9 18 1 9 7 31 14 47 7 17 11 36 10 43 -1 6 4 12 10 12 7 0 10 3 7 6
-4 3 0 20 7 39 8 18 11 35 8 39 -4 3 -1 6 5 6 7 0 12 9 12 20 0 11 4 20 9 20
5 0 7 9 4 20 -4 14 0 20 12 20 14 0 15 3 5 15 -10 12 -10 15 0 15 8 0 10 3 7
6 -3 4 0 16 8 28 8 11 15 28 15 38 0 10 9 26 19 35 11 9 17 22 14 30 -3 7 -1
19 5 26 10 12 12 17 12 38 0 5 6 7 13 3 6 -4 9 -4 5 0 -4 5 4 32 17 61 13 30
21 56 18 59 -3 3 2 8 11 12 9 3 13 11 9 17 -3 5 2 16 12 24 11 7 15 13 11 13
-5 0 -3 7 4 15 7 9 10 18 7 21 -3 4 1 13 9 21 8 8 11 19 8 25 -4 7 -2 8 4 4
11 -6 16 6 13 27 0 4 4 7 10 7 6 0 8 7 5 16 -3 8 -2 12 4 9 6 -3 10 1 10 9 0
9 4 16 10 16 5 0 9 3 8 8 -5 15 36 91 45 85 6 -4 8 0 4 10 -3 10 -2 17 3 17 6
0 10 6 10 14 0 8 7 22 16 30 8 9 12 16 8 16 -4 0 0 6 10 13 9 7 18 22 19 34 0
13 7 25 15 28 8 3 11 12 8 21 -3 8 -2 12 4 9 6 -3 10 0 10 8 0 8 7 17 15 21 9
3 12 12 8 22 -4 12 -3 15 5 10 7 -4 12 -1 12 8 0 9 5 16 11 16 5 0 7 5 4 10
-3 6 -1 10 5 10 6 0 9 4 6 9 -3 5 1 12 10 15 8 3 13 10 10 15 -3 5 1 12 10 15
9 4 14 13 10 22 -3 8 -2 12 4 9 6 -3 10 1 10 10 0 9 4 13 10 10 5 -3 12 6 16
20 3 14 10 25 15 25 5 0 9 7 9 15 0 8 5 15 10 15 6 0 10 7 10 15 0 8 5 15 11
15 5 0 7 5 3 12 -5 8 -2 9 9 5 9 -3 16 -3 16 1 -3 18 3 31 24 54 12 14 29 35
37 48 8 12 23 31 32 42 10 11 15 25 11 31 -3 6 -1 7 5 3 7 -4 17 3 23 18 7 14
15 24 18 21 4 -2 13 5 20 17 10 16 10 19 -1 13 -7 -3 -5 0 4 8 10 8 14 18 10
22 -4 5 -2 5 5 1 6 -3 18 2 25 13 22 31 91 113 123 146 16 16 30 33 30 37 0 4
15 18 32 31 18 13 30 27 26 30 -3 4 1 7 10 7 10 0 16 6 15 13 -2 6 3 11 10 9
6 -1 12 4 12 12 0 8 9 17 20 21 11 3 19 9 17 13 -1 4 8 17 21 30 12 12 22 19
22 15 0 -4 6 2 14 12 8 11 12 23 10 26 -2 4 4 6 14 5 10 0 16 5 14 13 -2 9 3
11 13 7 9 -3 14 -2 11 3 -6 10 72 77 86 73 5 -1 7 1 5 5 -2 5 6 18 19 31 13
12 24 20 24 17 0 -4 14 9 31 27 18 18 28 27 24 19 -5 -9 -4 -12 3 -7 7 4 12
14 12 21 0 9 6 12 17 8 11 -4 14 -3 9 5 -4 7 -3 12 2 12 5 0 21 11 36 25 14
13 26 22 26 19 0 -3 15 9 33 25 17 17 38 31 45 31 6 0 12 5 12 10 0 6 5 10 10
10 11 0 24 9 60 42 10 9 21 14 24 11 3 -3 8 2 12 11 3 9 10 13 15 10 5 -3 9 0
9 7 0 7 3 9 6 6 4 -4 15 3 25 14 10 12 22 18 27 15 6 -3 12 1 16 9 3 8 12 15
21 15 8 0 15 5 15 11 0 5 5 7 10 4 6 -3 10 2 10 12 0 15 2 16 10 3 8 -13 10
-13 10 2 0 11 5 15 15 12 8 -4 15 -1 15 5 0 6 6 11 14 11 8 0 16 5 18 11 2 5
11 11 21 13 9 1 24 11 33 22 8 10 12 12 8 4 -7 -13 -5 -13 9 -1 9 7 17 10 17
5 0 -4 6 0 13 11 8 10 18 16 23 13 11 -7 35 17 26 26 -3 4 1 4 10 1 8 -3 23 1
32 10 9 9 16 12 16 6 0 -6 9 -3 20 7 12 9 25 18 30 18 6 1 15 2 21 3 5 0 8 5
5 9 -3 5 1 9 9 10 8 1 22 3 30 4 8 1 15 5 15 10 0 5 4 7 8 4 5 -3 16 3 24 14
11 12 24 17 37 13 12 -3 21 -1 21 4 0 5 10 9 22 10 11 1 25 8 29 15 5 7 9 9 9
4 0 -5 6 -3 14 3 11 9 15 9 19 -1 3 -8 6 -5 6 6 1 11 4 16 8 13 3 -4 13 -1 21
6 11 8 13 8 9 0 -5 -8 -1 -8 18 0 14 7 25 15 25 19 0 4 9 5 20 3 11 -2 20 1
20 6 0 6 4 8 9 4 5 -3 12 -1 16 5 3 5 21 10 40 10 18 0 35 4 37 9 2 5 12 11
23 13 11 1 23 8 27 13 5 6 8 5 8 -2 0 -7 5 -13 11 -13 5 0 7 5 4 10 -3 6 3 11
14 11 29 2 34 3 47 11 6 4 21 6 33 3 12 -2 19 0 16 6 -7 10 -7 10 55 14 63 4
62 4 54 18 -5 8 -2 8 9 -2 10 -8 17 -9 17 -3 0 6 13 9 29 7 17 -2 46 5 65 15
20 10 34 14 31 10 -3 -5 -1 -11 5 -15 5 -3 10 -1 10 5 0 6 5 8 10 5 6 -3 10
-2 10 3 0 5 12 8 27 6 15 -1 35 2 44 7 12 6 19 5 22 -4 4 -9 6 -8 6 2 1 11 4
11 18 0 15 -12 16 -12 10 4 -3 9 -2 17 3 17 6 0 10 -5 10 -11 0 -5 5 -7 11 -3
7 4 40 8 74 9 34 1 67 5 75 10 9 5 11 4 6 -3 -4 -7 -3 -12 3 -12 5 0 12 6 14
13 4 9 7 9 15 -1 10 -15 45 -5 36 10 -4 7 0 7 12 0 11 -6 21 -11 24 -13 3 -1
16 4 30 11 23 12 24 12 11 -3 -8 -10 -9 -17 -3 -17 6 0 14 5 17 10 3 6 11 10
16 10 6 0 7 -4 4 -10 -3 -6 1 -7 9 -4 9 3 13 11 9 18 -4 8 -2 8 7 -1 7 -6 19
-9 28 -6 11 5 13 3 7 -7 -6 -10 -4 -12 11 -6 33 13 54 15 54 5 0 -6 5 -7 10
-4 6 4 8 12 4 18 -3 7 2 3 10 -7 12 -15 16 -16 16 -5 0 12 2 12 10 -1 9 -13
10 -13 10 0 0 9 3 11 8 5 4 -6 41 -10 82 -10 48 0 80 -5 89 -13 10 -9 17 -10
24 -3 14 14 30 14 22 1 -8 -13 18 -8 27 5 5 6 8 5 8 -2 0 -8 14 -13 36 -13 25
0 33 -4 29 -12 -4 -7 0 -5 8 5 14 16 15 16 21 1 5 -13 10 -14 18 -6 8 8 15 7
25 -6 14 -16 14 -16 8 2 -6 19 -5 19 13 3 10 -9 22 -14 25 -11 4 4 13 1 22 -6
12 -10 18 -10 32 1 14 12 16 12 8 0 -6 -11 -3 -13 13 -9 13 4 20 2 16 -4 -4
-6 6 -8 25 -5 17 3 31 1 31 -4 0 -5 9 -9 19 -9 11 0 23 -5 26 -10 5 -8 11 -7
21 1 11 9 14 9 14 0 0 -7 4 -10 9 -6 5 3 16 -2 25 -10 9 -9 17 -11 21 -5 4 6
12 4 22 -6 12 -11 18 -12 23 -4 6 9 11 7 19 -6 8 -14 11 -15 11 -4 0 9 3 11 8
5 10 -14 55 -39 47 -26 -3 6 -2 11 4 11 5 0 11 -4 13 -9 2 -5 14 -11 28 -13
14 -1 31 -10 38 -18 9 -10 11 -10 7 -1 -5 8 3 6 21 -5 15 -11 25 -13 20 -6 -6
10 -2 10 18 1 14 -7 23 -17 19 -23 -3 -6 -3 -8 2 -4 4 4 15 2 23 -5 13 -10 14
-9 7 3 -8 13 -6 13 8 2 9 -8 22 -10 28 -6 8 4 9 3 5 -4 -5 -8 1 -12 15 -12 13
0 34 -10 47 -22 14 -13 22 -17 18 -10 -4 6 -2 12 3 12 6 0 11 -4 11 -10 0 -5
9 -10 20 -10 11 0 20 -5 20 -11 0 -5 5 -7 10 -4 6 3 10 1 10 -5 0 -6 5 -8 10
-5 6 3 10 1 10 -4 0 -6 3 -10 8 -10 21 4 32 -2 26 -13 -5 -8 -2 -9 9 -5 10 3
17 2 17 -3 0 -5 7 -6 17 -3 12 5 14 3 8 -7 -6 -10 -3 -12 13 -8 13 4 20 2 19
-5 -1 -6 8 -13 21 -15 12 -2 22 -8 22 -13 0 -5 7 -9 15 -9 8 0 15 -4 15 -10 0
-5 7 -7 15 -4 9 4 15 0 15 -10 0 -10 9 -16 24 -16 13 0 29 -7 36 -15 7 -9 15
-13 18 -10 3 3 12 -5 20 -17 11 -18 12 -19 7 -3 -6 19 -5 19 12 3 55 -51 63
-57 63 -45 1 6 7 1 15 -13 8 -14 14 -19 15 -11 0 10 6 7 19 -7 10 -12 25 -22
32 -22 8 0 21 -9 29 -20 8 -11 20 -20 26 -20 7 0 26 -13 43 -29 16 -15 33 -26
36 -23 3 3 5 0 5 -7 0 -7 5 -9 10 -6 6 3 10 -1 10 -9 0 -9 3 -15 8 -14 13 4
52 -27 53 -42 0 -11 2 -11 6 -2 3 9 12 4 29 -15 13 -15 24 -24 24 -20 0 4 13
-5 29 -20 16 -15 42 -39 59 -53 17 -14 28 -29 24 -34 -3 -5 0 -6 5 -3 12 8 56
-27 46 -37 -3 -3 4 -6 17 -6 13 0 20 -3 17 -7 -4 -3 1 -12 11 -20 15 -13 15
-14 1 -10 -9 3 -22 0 -28 -6 -9 -9 -14 -8 -21 3 -7 12 -12 12 -21 3 -10 -10
-15 -9 -26 5 -8 9 -11 11 -7 3 5 -11 3 -13 -9 -8 -10 3 -17 3 -17 -1 0 -4 -11
-8 -25 -8 -16 -1 -22 2 -18 10 4 6 -6 2 -22 -8 -19 -13 -30 -15 -33 -8 -3 9
-9 9 -23 2 -13 -8 -19 -7 -19 0 0 6 -5 8 -10 5 -6 -4 -8 -10 -5 -15 6 -10 -15
-8 -33 4 -7 4 -12 4 -11 -1 3 -20 -2 -27 -11 -13 -6 10 -10 11 -10 3 0 -7 -9
-13 -20 -13 -11 0 -20 -5 -20 -11 0 -6 -7 -9 -15 -5 -8 3 -15 1 -15 -4 0 -5
-9 -7 -20 -5 -11 2 -19 -1 -17 -8 1 -7 -4 -11 -10 -9 -7 1 -13 -2 -13 -8 0 -5
-7 -6 -17 -3 -10 4 -14 2 -10 -4 8 -12 -20 -26 -34 -17 -5 3 -8 0 -7 -8 2 -7
-3 -12 -9 -10 -7 1 -13 -5 -13 -14 0 -10 -6 -14 -15 -10 -8 3 -15 1 -15 -5 0
-6 -5 -7 -12 -3 -7 4 -8 3 -4 -5 4 -6 0 -14 -8 -17 -9 -3 -13 -10 -10 -15 3
-5 -3 -6 -12 -2 -12 4 -15 3 -10 -5 4 -7 3 -12 -2 -12 -14 0 -52 -36 -45 -44
3 -3 1 -6 -6 -6 -7 0 -19 -7 -27 -15 -9 -8 -13 -15 -10 -15 4 0 -9 -15 -27
-33 -19 -17 -32 -38 -29 -45 2 -7 -2 -11 -10 -10 -7 2 -12 -5 -12 -14 1 -10
-2 -16 -6 -13 -5 3 -14 -8 -22 -25 -7 -16 -15 -30 -18 -30 -3 0 -14 -17 -25
-37 -11 -21 -24 -41 -30 -45 -5 -4 -6 -8 -1 -8 5 0 1 -10 -10 -22 -10 -12 -13
-18 -5 -13 9 5 5 -5 -7 -22 -12 -17 -22 -38 -22 -47 0 -9 -4 -16 -9 -16 -6 0
-8 -9 -6 -20 2 -11 -1 -20 -7 -20 -5 0 -8 -7 -5 -15 4 -8 2 -17 -4 -21 -6 -3
-8 -12 -5 -19 3 -8 1 -15 -4 -17 -4 -2 -11 -21 -14 -43 -4 -21 -12 -43 -19
-47 -9 -6 -9 -8 0 -8 9 0 10 -7 3 -24 -5 -13 -6 -27 -3 -30 4 -3 0 -6 -8 -6
-11 0 -11 -2 1 -10 12 -8 12 -10 1 -10 -8 0 -11 -7 -8 -20 5 -21 -7 -28 -18
-10 -4 6 -10 8 -15 5 -4 -3 -14 3 -21 12 -12 14 -12 16 0 8 9 -5 12 -4 7 3 -3
6 -16 9 -27 7 -14 -3 -19 0 -16 8 3 8 -4 14 -16 15 -12 0 -23 6 -25 12 -2 5
-8 10 -14 10 -6 0 -17 8 -25 18 -8 10 -11 11 -7 2 7 -12 5 -13 -8 -3 -8 7 -18
9 -22 5 -4 -4 -7 -2 -6 3 1 6 2 17 1 25 -1 13 -2 13 -11 0 -8 -12 -10 -12 -10
5 0 17 -2 17 -10 5 -7 -11 -10 -11 -10 -2 0 7 -4 10 -10 7 -5 -3 -10 -1 -10 4
0 6 -6 11 -14 11 -8 0 -16 5 -18 10 -2 6 -13 12 -26 13 -12 0 -22 6 -22 12 0
7 -10 11 -22 11 -14 -1 -22 4 -20 12 2 9 -4 11 -18 7 -11 -4 -20 -2 -20 4 0 6
-9 11 -20 11 -11 0 -20 5 -20 11 0 5 -4 8 -9 5 -12 -8 -42 4 -36 14 3 5 -3 7
-12 6 -10 -2 -24 4 -31 13 -8 9 -11 10 -7 4 8 -16 -21 -17 -31 -1 -5 7 -3 8 6
3 8 -5 11 -4 7 2 -4 6 -17 10 -29 9 -13 -1 -29 5 -36 14 -8 8 -11 9 -7 3 3 -7
1 -13 -4 -13 -6 0 -11 5 -11 11 0 5 -4 7 -10 4 -5 -3 -10 -2 -10 3 0 5 -9 12
-20 15 -13 3 -18 1 -13 -6 4 -7 -1 -5 -12 3 -10 8 -20 14 -22 13 -1 -2 -4 -3
-5 -2 -2 0 -14 2 -27 5 -14 2 -31 10 -40 17 -12 10 -13 9 -6 -3 8 -13 7 -13
-10 0 -10 8 -20 14 -22 13 -9 -7 -54 -2 -49 5 3 5 -1 9 -9 9 -8 0 -12 -3 -10
-7 2 -4 -2 -7 -10 -7 -8 0 -12 4 -9 9 3 4 -5 8 -18 8 -13 0 -33 1 -45 1 -13 0
-23 6 -23 12 0 7 -4 6 -10 -3 -8 -12 -10 -12 -10 -1 0 10 -3 11 -14 2 -10 -8
-16 -9 -21 -1 -9 14 -27 13 -20 -2 4 -7 0 -5 -8 5 -10 12 -17 15 -22 7 -4 -7
-11 -7 -18 -2 -7 5 -33 8 -60 6 -26 -1 -50 2 -53 7 -3 5 -13 5 -25 -1 -14 -8
-19 -7 -19 1 0 8 -5 7 -17 -2 -14 -12 -15 -12 -9 -1 7 11 4 12 -13 3 -15 -8
-21 -9 -21 -1 0 6 -5 8 -12 3 -21 -13 -50 -14 -42 -2 4 8 1 8 -12 2 -11 -5
-38 -9 -61 -8 -24 1 -43 -2 -43 -8 0 -5 -7 -4 -15 3 -12 10 -15 10 -15 -1 0
-11 -2 -11 -10 1 -5 8 -10 10 -10 3 0 -6 -9 -9 -20 -6 -13 3 -20 0 -20 -8 0
-12 -2 -12 -9 0 -6 9 -11 10 -15 2 -4 -6 -12 -11 -17 -11 -6 0 -7 6 -3 13 6 9
5 9 -7 0 -8 -7 -32 -13 -53 -15 -20 -1 -40 -6 -43 -10 -2 -5 -13 -6 -24 -3
-10 4 -19 2 -19 -4 0 -6 -7 -8 -16 -4 -9 3 -20 0 -25 -8 -7 -12 -9 -12 -9 1 0
13 -2 13 -9 1 -5 -8 -22 -15 -38 -17 -15 -1 -46 -8 -68 -14 -22 -7 -48 -12
-57 -13 -10 -1 -18 -8 -19 -17 0 -11 -2 -11 -6 -2 -4 10 -8 10 -19 1 -7 -6
-21 -9 -29 -5 -9 3 -18 -1 -22 -10 -3 -8 -12 -13 -19 -10 -8 3 -14 1 -14 -4 0
-5 -9 -7 -20 -5 -12 2 -23 -2 -27 -11 -3 -8 -12 -13 -19 -10 -7 3 -18 -3 -23
-12 -6 -9 -11 -13 -11 -8 0 5 -7 3 -15 -4 -8 -6 -18 -9 -24 -6 -5 3 -11 -1
-14 -9 -4 -8 -15 -12 -28 -10 -12 2 -19 2 -15 -2 10 -11 -15 -32 -31 -26 -8 3
-19 0 -24 -8 -4 -8 -12 -14 -16 -14 -14 -1 -78 -37 -85 -49 -4 -6 -8 -7 -8 -2
0 6 -7 1 -16 -10 -8 -10 -13 -12 -9 -4 4 10 2 9 -8 -2 -8 -10 -21 -18 -28 -18
-8 0 -29 -13 -47 -30 -36 -32 -47 -38 -37 -17 4 6 0 4 -8 -5 -8 -10 -18 -14
-22 -10 -5 4 -5 2 -2 -4 4 -7 -1 -18 -10 -25 -14 -12 -16 -12 -9 1 6 12 5 12
-6 -1 -7 -8 -21 -18 -31 -22 -10 -4 -15 -12 -12 -17 4 -6 2 -9 -4 -8 -11 3
-29 -10 -98 -69 -21 -18 -44 -33 -51 -33 -7 0 -11 -4 -8 -9 3 -5 -2 -15 -11
-22 -14 -12 -16 -12 -8 1 8 13 6 13 -8 1 -9 -7 -15 -17 -12 -21 3 -5 -4 -11
-15 -15 -11 -3 -20 -11 -20 -16 0 -5 -7 -9 -16 -9 -8 0 -13 -4 -9 -9 3 -5 -4
-12 -15 -16 -11 -3 -19 -9 -17 -13 2 -7 -56 -68 -60 -64 -2 1 -3 0 -3 -3 1
-11 -25 -33 -32 -28 -5 2 -8 -1 -8 -7 0 -6 -12 -24 -27 -39 -56 -59 -98 -112
-95 -122 1 -6 -1 -8 -6 -5 -5 3 -16 -4 -25 -15 -9 -10 -14 -19 -10 -19 3 0 -4
-8 -15 -19 -12 -10 -22 -23 -22 -29 0 -5 -7 -12 -15 -16 -8 -3 -15 -10 -15
-16 0 -6 -6 -17 -13 -25 -27 -29 -46 -55 -40 -55 4 0 -2 -9 -13 -20 -27 -27
-44 -49 -44 -55 1 -21 -1 -25 -10 -20 -5 3 -10 0 -10 -7 0 -7 -16 -36 -34 -64
-19 -29 -32 -54 -29 -58 4 -3 1 -6 -5 -6 -7 0 -12 -7 -12 -15 0 -8 -4 -15 -10
-15 -5 0 -10 -7 -10 -16 0 -9 -5 -12 -12 -8 -6 4 -8 3 -5 -4 10 -15 -3 -43
-17 -35 -6 3 -8 2 -3 -2 4 -5 -1 -17 -10 -28 -10 -11 -12 -17 -5 -13 11 7 12
4 3 -13 -7 -11 -16 -21 -21 -21 -5 0 -7 -9 -5 -20 2 -11 0 -18 -5 -15 -5 3
-12 -6 -16 -20 -3 -14 -10 -25 -15 -25 -5 0 -8 -3 -8 -7 3 -20 -2 -34 -10 -29
-5 4 -8 -2 -6 -11 1 -10 -2 -24 -8 -32 -6 -7 -12 -20 -14 -29 -1 -9 -6 -18
-12 -20 -5 -2 -7 -10 -4 -18 3 -8 0 -14 -6 -14 -6 0 -11 -9 -11 -21 0 -11 -4
-18 -9 -15 -5 4 -8 -2 -6 -11 1 -10 -5 -27 -14 -37 -9 -11 -11 -16 -4 -13 8 5
8 1 0 -17 -7 -13 -15 -22 -19 -20 -4 3 -5 -1 -2 -9 3 -8 0 -18 -5 -22 -6 -3
-9 -11 -5 -16 3 -5 0 -16 -6 -24 -6 -8 -9 -19 -5 -25 3 -5 -1 -13 -9 -16 -9
-3 -16 -17 -16 -29 0 -13 -5 -27 -11 -30 -6 -4 -8 -13 -5 -21 3 -7 1 -16 -5
-19 -5 -4 -7 -11 -4 -16 4 -5 2 -9 -2 -9 -5 0 -10 -12 -11 -27 -1 -15 -5 -29
-10 -32 -4 -3 -9 -17 -11 -31 -1 -14 -8 -28 -15 -32 -7 -5 -6 -8 4 -8 9 0 11
-3 5 -8 -5 -4 -12 -16 -13 -27 -2 -11 -9 -26 -15 -34 -10 -12 -9 -13 2 -6 11
6 12 5 5 -6 -9 -14 -14 -34 -16 -56 -1 -7 -6 -13 -12 -13 -6 0 -4 -5 4 -10 9
-6 11 -10 3 -10 -7 0 -10 -7 -7 -15 4 -8 1 -15 -6 -15 -6 0 -8 -5 -4 -11 3 -6
0 -15 -7 -20 -12 -7 -12 -9 0 -9 10 0 11 -3 2 -13 -6 -8 -9 -23 -6 -35 2 -12
-1 -22 -7 -22 -5 0 -8 -6 -5 -14 3 -8 3 -17 -1 -21 -4 -4 -8 -25 -9 -47 -1
-23 -7 -45 -15 -49 -10 -7 -10 -9 2 -9 10 0 11 -3 4 -8 -6 -4 -10 -19 -9 -34
1 -16 -3 -28 -9 -28 -6 0 -4 -5 4 -10 11 -7 12 -10 2 -10 -9 0 -11 -7 -7 -20
3 -11 3 -20 -2 -20 -4 0 -8 -25 -8 -56 0 -31 -4 -58 -8 -61 -4 -3 -2 -12 5
-21 11 -13 11 -14 -1 -7 -11 6 -13 4 -8 -8 3 -9 1 -18 -6 -21 -9 -3 -8 -5 1
-5 8 -1 10 -7 4 -18 -4 -10 -8 -53 -7 -95 0 -46 -4 -78 -10 -78 -5 0 -3 -5 5
-10 8 -5 10 -10 5 -10 -12 0 -13 -46 -2 -57 4 -3 2 -12 -4 -20 -9 -10 -8 -17
2 -30 11 -13 11 -15 1 -9 -10 6 -12 -1 -7 -34 4 -24 2 -40 -3 -36 -5 3 -9 -1
-9 -9 0 -8 3 -12 7 -10 11 7 8 -100 -4 -107 -8 -6 -8 -8 1 -8 6 0 10 -11 8
-25 -1 -14 3 -25 9 -25 6 0 4 -5 -4 -10 -13 -9 -13 -10 0 -10 13 0 13 -1 0
-10 -8 -5 -10 -10 -5 -10 6 0 10 -28 10 -65 0 -36 3 -65 7 -65 4 0 3 -11 -2
-24 -5 -15 -5 -27 3 -35 6 -6 8 -11 4 -11 -4 0 -3 -9 3 -20 8 -15 8 -20 -2
-20 -8 0 -9 -3 -3 -8 6 -4 10 -23 10 -42 0 -19 2 -39 5 -45 5 -10 6 -23 13
-86 2 -19 7 -41 11 -47 4 -7 2 -12 -6 -12 -10 0 -10 -2 1 -9 7 -5 10 -14 7
-20 -4 -6 -3 -11 2 -11 5 0 8 -11 7 -25 -2 -14 1 -25 6 -25 4 0 6 -7 3 -15 -4
-8 -2 -21 3 -28 5 -6 8 -27 8 -45 -1 -17 3 -32 7 -32 5 0 6 -4 3 -10 -3 -5 0
-10 7 -10 10 0 10 -2 -1 -9 -10 -6 -10 -10 -1 -16 6 -4 9 -13 6 -21 -3 -8 -2
-14 2 -14 4 0 9 -14 10 -32 2 -17 8 -38 15 -47 9 -11 9 -13 0 -8 -7 5 -6 -4 3
-23 9 -16 13 -34 9 -40 -3 -5 -1 -10 4 -10 6 0 11 -13 11 -30 0 -17 5 -30 13
-30 9 0 9 -2 -1 -9 -11 -7 -11 -9 2 -14 9 -4 13 -13 10 -22 -3 -8 -2 -15 3
-15 5 0 9 -9 10 -20 1 -11 9 -27 17 -36 9 -9 13 -21 9 -27 -3 -7 -3 -9 2 -5 9
8 35 -15 35 -32 0 -6 5 -8 10 -5 6 3 13 -1 16 -10 4 -9 13 -14 20 -11 8 3 14
1 14 -3 0 -5 7 -12 16 -15 10 -4 13 -2 8 7 -5 8 -2 8 9 -2 9 -7 23 -11 30 -8
8 3 20 1 27 -3 9 -6 19 -2 28 8 9 11 11 12 6 2 -7 -13 -5 -13 9 -1 9 7 17 10
17 7 0 -4 6 -1 14 6 8 7 28 24 45 37 18 13 30 26 27 28 -2 3 4 13 15 24 11 11
17 24 14 29 -4 6 -1 10 4 10 6 0 11 7 11 16 0 8 4 13 8 10 9 -5 8 41 -1 51 -4
3 -2 12 5 20 6 7 8 16 5 19 -3 3 -2 17 3 30 6 15 6 26 -1 30 -6 3 -9 15 -6 25
3 11 1 19 -5 19 -5 0 -7 4 -3 9 3 5 1 12 -4 15 -5 4 -8 14 -7 24 2 9 0 19 -5
22 -4 3 -9 17 -11 30 -2 14 -7 31 -12 39 -7 10 -5 12 5 6 8 -5 5 1 -5 13 -11
12 -17 25 -14 28 3 3 0 26 -8 51 -8 25 -11 49 -9 53 3 5 1 11 -5 15 -6 4 -8
11 -5 16 4 5 0 9 -7 9 -9 0 -9 3 2 10 9 6 10 10 3 10 -6 0 -10 9 -8 20 2 11
-1 20 -7 20 -6 0 -8 3 -5 6 3 4 2 16 -4 27 -8 14 -8 18 0 13 14 -9 14 -7 -3
42 -11 31 -12 42 -3 46 9 3 9 5 0 5 -7 1 -10 8 -6 18 4 10 2 14 -4 10 -6 -4
-8 8 -6 33 3 28 0 40 -9 40 -10 0 -10 2 0 9 17 11 17 22 0 32 -11 7 -11 12 0
30 8 11 9 18 4 15 -6 -3 -12 1 -16 9 -3 8 0 15 7 15 7 0 8 3 2 8 -5 4 -10 34
-10 67 1 33 -4 66 -10 74 -8 12 -7 13 5 6 13 -8 13 -7 1 8 -11 14 -11 17 0 17
12 0 12 2 0 9 -9 6 -10 11 -2 15 15 10 3 28 -12 19 -7 -3 -4 3 6 14 12 14 15
23 8 28 -6 3 -11 11 -11 16 0 6 6 7 13 3 9 -6 9 -4 -1 8 -8 10 -9 18 -3 22 6
4 8 13 5 21 -4 8 -11 12 -18 8 -6 -4 -5 1 3 10 7 9 10 17 6 17 -4 0 -1 8 6 17
8 10 9 14 2 10 -8 -5 -11 0 -10 13 1 11 6 20 12 20 5 0 4 4 -4 9 -9 6 -10 11
-2 15 8 5 8 13 1 27 -7 12 -7 19 -1 19 10 0 7 32 -4 49 -3 5 -1 12 4 15 5 3 8
28 7 56 -1 27 2 50 6 50 4 0 3 11 -2 25 -8 20 -6 23 7 18 13 -5 13 -3 5 14 -6
11 -8 23 -5 27 5 5 12 45 15 96 0 8 4 20 7 25 3 6 6 29 6 53 0 23 4 42 9 42 4
0 6 6 3 14 -3 8 -3 17 1 21 4 3 8 18 9 33 3 34 7 54 14 67 3 6 5 24 4 42 0 17
2 30 6 27 4 -2 10 3 13 12 9 23 8 26 -7 18 -9 -6 -9 -5 0 8 7 8 10 18 6 21 -3
4 -2 7 4 7 5 0 10 6 11 13 5 38 9 54 16 65 4 6 4 12 0 12 -3 0 -1 7 6 15 7 8
9 15 5 15 -4 0 -1 7 6 16 8 9 12 28 11 42 -3 17 0 22 9 16 9 -5 11 -2 6 9 -4
10 -1 17 6 17 8 0 6 4 -3 10 -12 8 -12 10 -1 10 8 0 11 3 8 7 -4 3 -2 12 4 20
6 7 8 13 5 13 -4 0 0 10 8 22 9 12 16 30 16 39 0 8 11 36 23 62 13 25 19 44
13 41 -6 -3 -4 0 4 8 8 7 16 19 18 26 1 6 3 18 5 24 1 7 9 19 17 26 13 12 13
13 0 7 -8 -4 -5 2 7 13 16 14 19 22 10 31 -8 8 -8 11 1 11 7 0 12 5 12 11 0 7
8 18 18 26 10 9 11 11 2 7 -11 -6 -10 -2 3 13 9 11 14 23 10 26 -3 4 0 7 7 7
7 0 11 3 7 6 -3 4 8 27 25 52 17 25 25 41 17 37 -8 -4 -4 2 9 14 20 20 26 33
20 47 -2 3 5 10 15 15 9 6 17 17 17 24 0 8 5 15 11 15 5 0 8 4 5 9 -3 5 1 12
10 15 9 4 14 9 11 12 -3 4 -1 12 6 20 28 31 37 44 38 51 1 5 5 7 11 5 5 -1 7
2 3 8 -3 5 -1 10 5 10 6 0 9 4 5 9 -3 5 4 16 15 24 11 7 17 17 13 20 -3 4 -1
7 5 7 7 0 12 5 12 11 0 5 14 24 30 42 17 18 33 40 36 50 3 9 9 15 13 12 5 -2
13 7 19 20 7 14 16 25 22 25 6 0 8 5 5 10 -3 6 1 10 9 10 9 0 15 3 13 8 -1 4
24 33 56 65 31 32 57 63 57 69 0 6 3 8 7 5 3 -4 21 9 40 29 18 20 33 34 33 30
0 -4 20 14 45 38 25 25 45 43 45 39 0 -3 12 7 26 23 15 16 23 22 19 14 -4 -9
-1 -9 8 3 8 9 20 17 26 17 7 0 9 5 6 10 -3 6 1 10 10 10 8 0 18 6 21 14 3 9
12 12 21 9 11 -4 14 -2 9 5 -4 7 3 14 18 18 13 3 27 12 30 21 3 8 10 11 16 8
5 -3 10 -1 10 4 0 6 7 11 15 11 8 0 15 5 15 11 0 6 7 8 16 5 8 -3 13 -2 10 3
-3 5 2 15 11 22 14 12 16 12 8 -1 -6 -10 -2 -9 12 3 11 10 30 19 41 20 13 1
18 6 14 17 -3 8 -2 12 3 8 4 -4 14 -3 22 4 7 6 16 8 19 5 4 -3 15 4 26 16 11
12 17 16 13 10 -9 -18 10 -16 25 2 7 8 19 15 26 15 8 0 14 4 14 9 0 5 6 9 13
8 31 -1 48 4 43 12 -4 5 3 7 14 4 12 -3 22 1 26 11 3 9 10 16 16 16 5 0 6 -5
2 -11 -3 -6 5 -4 19 5 13 9 29 16 33 14 5 -1 19 3 32 10 12 7 22 9 22 5 0 -4
5 -2 11 4 6 6 18 9 27 6 11 -5 13 -3 7 6 -5 10 -2 11 13 7 11 -4 23 -3 26 3 3
5 19 8 35 7 17 -1 27 2 24 8 -4 5 1 7 10 3 12 -4 17 -1 18 11 0 14 2 14 9 -3
5 -11 9 -15 9 -9 1 7 16 11 37 10 20 -1 38 2 40 6 3 5 14 3 24 -2 16 -8 18 -8
14 5 -7 18 7 20 25 3 10 -9 12 -9 7 -1 -4 8 3 11 21 11 16 -1 39 2 52 7 18 5
22 4 16 -5 -5 -9 -4 -11 3 -6 21 12 51 15 58 5 4 -6 11 -6 20 2 8 6 14 8 14 4
0 -4 8 -1 17 6 9 8 14 9 10 3 -4 -7 27 -10 102 -10 92 1 108 -1 103 -14 -5
-13 -3 -13 11 -1 14 11 17 11 17 0 0 -11 2 -11 10 1 8 12 10 12 10 1 0 -11 3
-11 17 0 14 12 16 12 8 0 -6 -11 -3 -13 13 -9 12 4 22 3 22 -1 0 -4 14 -6 30
-3 20 3 30 0 30 -9 0 -7 3 -9 7 -6 3 4 13 1 21 -6 13 -10 15 -9 8 8 -7 18 -6
18 16 -2 17 -16 27 -19 41 -12 12 7 19 6 23 -4 3 -8 15 -14 27 -13 12 1 25 -3
29 -8 4 -6 13 -4 24 5 10 8 15 9 11 3 -7 -12 14 -36 29 -33 26 4 45 -2 38 -13
-5 -10 -4 -10 6 -1 10 9 16 8 27 -3 8 -8 19 -12 24 -9 5 4 9 1 9 -4 0 -6 9
-11 20 -11 11 0 20 -6 20 -12 0 -10 2 -10 9 0 7 11 9 11 14 -2 4 -9 14 -13 27
-11 16 3 20 0 16 -10 -3 -10 0 -12 11 -8 12 5 14 3 8 -8 -4 -8 -5 -11 0 -7 4
4 15 2 23 -5 13 -10 14 -9 7 3 -7 12 -6 13 7 3 8 -7 19 -9 23 -5 5 4 5 2 2 -4
-4 -7 7 -17 26 -25 17 -7 35 -17 38 -21 3 -5 15 -10 27 -11 11 0 20 -4 20 -7
-2 -21 5 -27 24 -22 13 3 19 1 15 -5 -8 -12 20 -26 34 -17 5 3 9 0 9 -6 0 -17
30 -45 30 -28 0 8 5 6 11 -5 6 -9 15 -14 21 -11 6 4 8 3 5 -3 -4 -6 1 -17 10
-24 14 -12 16 -12 9 1 -4 8 5 2 21 -15 15 -16 35 -31 42 -33 20 -4 61 -49 52
-57 -3 -4 -1 -6 4 -5 22 5 35 -1 35 -16 0 -9 5 -12 12 -8 6 4 8 3 4 -4 -3 -6
-2 -13 3 -17 6 -3 7 -16 3 -28 -4 -12 -7 -48 -6 -80 2 -41 -1 -55 -9 -50 -9 5
-9 3 -1 -8 14 -19 16 -61 2 -53 -7 5 -8 2 -2 -7 13 -21 14 -70 2 -63 -7 5 -8
2 -2 -7 12 -20 14 -38 3 -45 -5 -3 -5 -13 1 -25 8 -14 7 -19 -2 -19 -8 0 -9
-3 -3 -8 12 -8 14 -47 3 -58 -4 -4 -3 -13 3 -21 9 -9 8 -13 0 -13 -9 0 -9 -5
0 -21 8 -16 8 -20 -1 -14 -9 6 -9 3 -1 -12 7 -14 7 -23 -1 -31 -9 -9 -9 -12 1
-12 10 0 11 -3 2 -13 -8 -10 -7 -17 1 -25 9 -9 9 -12 0 -12 -9 0 -10 -6 -4
-17 9 -20 8 -60 -2 -70 -3 -3 -1 -12 5 -20 6 -7 7 -13 2 -13 -11 0 -11 -29 0
-47 4 -6 3 -14 -1 -17 -10 -6 -8 -48 4 -67 5 -8 3 -9 -5 -4 -10 6 -11 3 -2
-14 7 -11 8 -21 4 -21 -10 0 -11 -261 -1 -276 4 -6 4 -14 0 -18 -12 -12 -10
-110 2 -125 8 -11 8 -13 -1 -8 -15 9 -13 -54 2 -65 7 -5 6 -8 -1 -8 -5 0 -9
-16 -8 -37 1 -21 3 -38 4 -38 1 0 3 -11 6 -25 2 -14 7 -36 10 -50 4 -14 6 -35
5 -47 -1 -14 3 -23 11 -23 10 0 9 -3 -2 -10 -11 -7 -11 -10 -2 -10 7 0 10 -4
7 -10 -3 -5 -1 -10 6 -10 10 0 10 -3 2 -11 -9 -9 -8 -18 4 -35 8 -13 12 -24 9
-24 -4 0 0 -12 7 -27 8 -16 13 -36 12 -46 -2 -9 1 -15 6 -11 8 4 14 -17 10
-38 0 -5 4 -8 9 -8 6 0 10 -7 10 -15 0 -8 6 -15 13 -15 9 0 9 -2 -1 -9 -11 -6
-10 -10 3 -15 9 -3 15 -13 12 -20 -3 -8 1 -17 9 -20 9 -3 13 -10 10 -15 -4 -5
-3 -11 1 -13 5 -1 19 -18 32 -37 13 -19 17 -30 10 -26 -8 5 -1 -4 14 -18 15
-15 26 -31 22 -36 -3 -5 4 -12 15 -16 11 -3 20 -14 20 -24 0 -10 8 -25 18 -32
16 -13 16 -13 2 6 -14 19 -14 19 3 6 9 -7 17 -18 17 -23 0 -6 15 -24 33 -41
17 -16 31 -34 29 -39 -1 -5 2 -7 8 -3 5 3 10 1 10 -4 0 -6 7 -11 16 -11 8 0
13 -3 11 -7 -6 -10 19 -34 27 -26 3 3 8 -2 12 -11 3 -9 11 -16 18 -16 6 0 18
-9 26 -20 10 -14 16 -16 22 -7 5 8 8 6 8 -7 0 -12 5 -16 15 -12 8 3 15 1 15
-4 0 -6 7 -10 15 -10 8 0 15 -4 15 -10 0 -5 9 -10 21 -10 11 0 18 -3 16 -8 -3
-4 9 -8 26 -9 17 -1 35 -10 40 -19 7 -12 11 -13 17 -4 5 8 11 8 22 -3 10 -11
19 -12 33 -5 13 8 16 7 11 -1 -5 -7 1 -11 14 -11 14 0 19 -4 14 -12 -6 -10 -4
-10 8 0 17 14 39 13 50 -3 5 -6 8 -5 8 4 0 10 3 11 14 2 11 -9 15 -9 19 1 4
10 6 10 6 1 1 -7 8 -13 17 -13 9 0 12 5 8 12 -5 7 -3 8 7 2 14 -9 20 -11 42
-13 15 -1 17 -101 2 -101 -5 0 -3 -5 5 -10 8 -5 10 -10 4 -10 -7 0 -12 -15
-12 -33 -1 -59 -11 -147 -17 -157 -3 -5 -1 -10 4 -10 6 0 11 -4 11 -10 0 -5
-7 -7 -16 -3 -14 5 -15 3 -5 -15 7 -12 8 -22 3 -22 -5 0 -8 -12 -7 -27 1 -16
-2 -34 -8 -40 -6 -9 -5 -13 4 -13 9 0 10 -3 3 -8 -16 -11 -25 -42 -12 -42 7 0
7 -5 -2 -14 -6 -8 -10 -23 -8 -33 1 -10 -2 -25 -7 -33 -10 -15 -11 -24 -14
-76 0 -14 -5 -23 -10 -20 -4 3 -7 -6 -5 -19 1 -14 -2 -27 -7 -31 -5 -3 -7 -10
-4 -15 4 -5 1 -9 -6 -9 -8 0 -8 -4 1 -15 10 -12 10 -15 0 -15 -7 0 -10 -8 -7
-20 3 -13 1 -18 -6 -13 -6 4 -8 0 -4 -9 3 -9 1 -20 -4 -25 -9 -9 -21 -52 -22
-80 0 -7 -4 -13 -8 -13 -5 0 -7 -14 -5 -30 2 -17 0 -33 -4 -35 -11 -7 -5 -118
8 -142 6 -11 8 -23 5 -27 -3 -3 -1 -6 5 -6 7 0 12 -7 12 -15 0 -8 5 -15 11
-15 5 0 7 -4 4 -10 -3 -5 3 -17 14 -27 11 -9 17 -21 14 -26 -3 -6 -1 -7 4 -4
6 4 21 -2 34 -14 12 -11 29 -17 36 -14 8 2 12 1 9 -4 -3 -4 6 -13 20 -20 15
-6 23 -7 19 -1 -8 13 1 13 27 -1 16 -9 19 -8 13 2 -6 9 -2 11 13 7 16 -5 22
-1 23 10 0 11 2 13 6 4 4 -10 8 -10 19 -1 8 6 14 8 14 5 0 -4 20 14 45 39 25
25 44 49 41 54 -3 4 3 13 14 21 10 7 16 19 13 27 -3 8 -2 13 3 11 5 -1 18 3
29 9 20 11 27 13 46 13 5 0 7 5 3 12 -4 7 -3 8 4 4 7 -4 18 -4 25 1 12 8 17 9
38 12 5 0 7 6 4 11 -4 7 3 9 19 6 15 -3 24 -1 21 5 -6 8 8 13 20 7 2 -2 11 6
20 17 9 11 13 13 9 5 -7 -13 -6 -13 12 0 10 8 22 20 26 25 4 6 8 6 8 2 0 -9
61 23 72 38 5 6 8 6 8 1 0 -6 7 -1 16 10 8 10 12 12 8 4 -5 -8 12 1 36 20 24
19 41 28 36 20 -4 -8 -1 -7 7 2 8 10 19 18 26 18 6 0 11 5 11 10 0 6 7 10 15
10 8 0 15 5 15 11 0 5 4 8 8 5 5 -3 14 3 22 14 7 10 20 16 29 12 9 -3 13 -1 9
3 -7 8 33 44 40 37 2 -2 15 9 29 25 14 15 22 21 18 13 -3 -8 1 -6 10 5 9 11
21 19 26 17 5 -1 9 5 9 13 0 14 12 20 33 16 5 -1 6 3 2 9 -3 5 1 10 10 10 9 0
14 4 10 9 -3 5 4 12 15 16 11 4 18 10 15 15 -3 5 4 11 15 15 11 3 25 15 31 26
5 11 14 17 20 14 5 -4 9 2 9 11 0 10 3 15 6 12 6 -7 49 32 49 44 0 4 15 18 32
31 18 13 30 27 26 30 -3 4 1 7 10 7 10 0 16 3 15 8 -2 4 14 24 35 45 21 20 36
37 32 37 -4 0 7 12 24 27 17 15 31 33 31 41 0 7 5 10 10 7 6 -3 10 0 10 7 0 8
14 29 30 48 46 53 50 58 50 70 0 5 3 10 8 10 4 0 12 10 17 23 6 12 16 21 23
19 7 -1 12 1 11 5 -2 16 14 53 22 53 5 0 9 5 9 11 0 18 28 41 35 29 5 -8 11
-7 22 1 12 10 16 10 24 -2 7 -11 9 -10 10 6 0 15 2 16 7 5 4 -8 16 -14 27 -14
11 1 26 2 33 3 7 1 10 6 6 13 -4 7 -3 8 4 4 7 -4 12 -14 12 -22 0 -9 5 -12 12
-8 8 5 9 2 4 -12 -13 -33 -15 -53 -5 -59 5 -4 5 -13 -1 -25 -7 -13 -7 -21 0
-25 7 -4 7 -11 2 -18 -5 -7 -7 -27 -5 -45 2 -23 -1 -31 -9 -26 -7 5 -8 3 -3
-6 12 -19 6 -142 -8 -159 -9 -12 -9 -13 1 -7 9 6 11 1 8 -18 -3 -14 -8 -31
-12 -37 -5 -8 -3 -9 6 -4 10 6 11 4 4 -6 -13 -21 -14 -39 -1 -39 8 0 7 -3 -1
-9 -8 -4 -13 -17 -12 -27 1 -11 1 -21 0 -24 -1 -3 -3 -18 -4 -35 -1 -16 -5
-36 -9 -42 -5 -8 -3 -13 3 -13 7 0 8 -6 2 -17 -5 -10 -10 -38 -11 -63 -1 -24
-7 -50 -12 -56 -7 -8 -6 -14 1 -19 7 -4 8 -11 2 -18 -5 -7 -9 -19 -10 -27 -1
-34 -9 -98 -14 -106 -3 -5 -4 -19 -3 -32 1 -12 -2 -22 -6 -22 -5 0 -6 -7 -3
-15 4 -9 0 -15 -7 -15 -11 0 -11 -3 1 -10 11 -7 11 -10 2 -10 -7 0 -10 -5 -6
-11 3 -6 0 -15 -7 -20 -11 -7 -11 -9 -1 -9 8 0 10 -5 6 -12 -9 -14 -13 -37
-17 -83 -1 -16 -7 -33 -13 -37 -6 -4 -10 -23 -9 -43 1 -19 -1 -35 -5 -35 -4 0
-8 -11 -9 -25 -3 -48 -4 -55 -12 -55 -4 0 -8 -8 -8 -17 0 -40 -10 -76 -23 -84
-11 -7 -11 -9 0 -9 8 0 10 -5 5 -12 -8 -13 -13 -33 -15 -55 -1 -7 -5 -13 -9
-13 -4 0 -6 -8 -5 -18 2 -9 -2 -20 -8 -24 -7 -5 -6 -8 4 -8 11 0 12 -2 2 -8
-7 -5 -15 -18 -17 -30 -3 -12 -8 -32 -11 -45 -11 -45 -12 -52 -13 -60 -1 -5
-4 -6 -8 -4 -5 3 -9 -11 -10 -30 -1 -19 -6 -40 -10 -46 -5 -7 -8 -22 -7 -35 0
-12 -3 -22 -8 -22 -5 0 -4 -9 2 -20 8 -14 8 -20 0 -20 -6 0 -8 -5 -3 -12 4 -7
8 -24 9 -38 1 -14 2 -25 3 -25 2 0 4 -9 6 -20 2 -11 8 -21 14 -23 5 -2 8 -9 5
-16 -3 -7 2 -19 11 -26 8 -7 15 -19 15 -27 0 -8 5 -11 10 -8 6 3 10 -1 10 -9
0 -9 7 -16 16 -16 8 0 13 -3 10 -8 -2 -4 7 -12 20 -19 18 -8 23 -8 18 0 -3 7
0 5 8 -4 7 -9 19 -14 27 -11 8 3 11 0 7 -7 -4 -6 -3 -11 3 -11 5 0 13 5 17 11
5 8 9 8 14 -1 6 -9 13 -9 29 -1 16 9 21 9 21 -1 0 -8 5 -6 11 5 6 9 14 15 19
12 5 -3 27 12 49 33 23 21 43 36 46 33 4 -3 3 3 -1 13 -5 14 -4 17 4 12 11 -6
17 5 13 27 0 4 3 7 8 7 5 0 12 18 16 40 4 22 10 40 14 40 6 0 10 17 13 58 1 6
4 12 8 12 5 0 9 18 12 58 1 6 5 12 10 12 4 0 8 13 8 28 0 16 3 32 7 36 4 3 8
14 9 22 1 9 6 23 10 32 4 9 9 28 10 42 5 48 9 65 16 70 4 3 8 20 10 38 1 18 5
32 9 32 4 0 6 8 4 18 -1 9 2 23 8 30 5 6 6 12 2 12 -4 0 -1 8 6 17 12 15 12
16 -1 8 -13 -8 -13 -6 -2 8 8 9 11 21 7 27 -3 5 -2 10 4 10 6 0 8 7 5 15 -4 8
-2 21 4 28 5 6 8 20 7 30 -2 9 1 17 6 17 6 0 5 9 -2 21 -6 12 -7 19 -1 15 14
-8 21 16 16 53 -4 20 -1 31 7 31 7 0 9 3 6 7 -4 3 -1 13 6 21 10 13 9 14 -3 7
-13 -8 -13 -6 -2 7 8 10 11 30 9 47 -3 17 -1 29 4 26 5 -4 9 4 8 17 0 13 3 37
6 53 4 17 6 39 6 49 0 11 4 27 10 38 7 13 6 18 -2 18 -8 0 -8 4 -2 12 6 7 9
21 8 31 -2 9 2 17 8 17 7 0 5 5 -3 10 -8 5 -10 10 -4 10 17 0 25 28 12 36 -7
5 -8 2 -3 -6 6 -9 4 -11 -5 -5 -11 7 -10 10 1 19 8 6 14 24 13 39 -1 15 3 30
8 33 5 3 4 12 -3 20 -9 11 -8 14 2 14 11 0 11 2 -1 10 -9 6 -11 10 -3 10 7 0
10 6 7 14 -3 8 -1 17 5 21 8 4 8 12 1 26 -6 11 -7 19 -1 19 12 0 9 33 -4 42
-6 5 -5 8 2 8 8 0 11 11 9 30 -2 17 0 30 4 30 4 0 5 12 2 26 -4 21 -2 25 9 19
11 -6 11 -5 3 4 -11 11 -10 66 0 159 2 18 0 35 -6 38 -5 3 -4 11 2 20 7 7 10
19 7 26 -2 7 0 21 5 32 7 13 7 16 -1 12 -14 -9 -14 0 0 26 8 15 8 19 0 14 -6
-4 -11 -2 -11 3 0 6 6 11 13 11 8 0 7 4 -3 10 -13 9 -13 10 0 10 13 0 13 1 0
10 -11 7 -11 10 -2 10 10 0 10 5 2 20 -7 14 -7 20 0 20 5 0 10 7 10 15 0 8 8
15 18 15 10 0 24 6 31 12 11 11 13 11 7 0 -10 -17 -1 -15 18 4 9 8 16 11 16 5
0 -6 4 -11 10 -11 5 0 7 6 4 13 -3 10 4 13 26 12 19 -1 34 4 40 14 5 9 11 15
14 14 15 -7 34 -1 52 15 11 10 25 17 31 15 6 -2 18 6 27 19 9 12 16 18 16 13
0 -6 10 1 21 15 11 14 18 18 14 10 -4 -8 1 -6 9 4 9 11 16 16 16 12 0 -4 20
13 44 37 24 25 47 43 50 40 3 -4 6 1 6 11 0 9 5 14 10 11 6 -3 10 0 10 7 0 7
12 23 27 35 14 13 23 23 19 23 -4 0 -1 6 6 14 7 8 16 12 20 9 4 -2 5 4 1 13
-4 11 -2 15 4 11 13 -8 26 20 16 36 -3 7 -3 9 2 5 8 -7 30 16 35 37 2 6 10 15
19 22 9 7 12 13 6 13 -7 0 -7 3 0 8 19 14 46 72 39 84 -4 7 -3 8 4 4 7 -4 13
-2 13 3 1 6 2 16 3 21 0 6 6 14 12 18 6 4 10 15 8 25 -1 9 2 17 7 17 5 0 9 9
9 20 0 12 7 34 15 51 9 16 13 34 10 39 -3 6 -2 10 4 10 5 0 8 9 6 20 -2 11 1
22 6 26 5 3 7 14 4 25 -4 10 -2 19 3 19 5 0 9 6 10 13 6 92 15 148 26 166 6
10 5 12 -2 7 -14 -9 -14 -9 -3 31 6 20 6 35 0 38 -5 4 -5 13 1 25 7 13 6 20
-3 23 -7 3 -7 6 -1 6 7 1 9 16 4 46 -4 25 -4 47 -1 49 3 2 6 45 5 95 0 58 4
91 10 91 7 0 7 3 0 8 -13 8 -13 100 0 121 6 10 5 12 -2 7 -7 -4 -12 -4 -13 1
0 4 -2 16 -4 26 -2 9 1 15 6 11 5 -3 6 -11 3 -17 -4 -7 -3 -9 1 -4 11 9 13 57
3 51 -12 -8 -10 10 3 23 8 8 8 13 0 17 -6 4 -11 12 -11 17 0 6 5 7 11 3 8 -5
8 -1 0 14 -13 24 -14 35 -3 29 9 -6 8 50 -1 60 -10 9 -9 25 1 19 10 -6 9 135
-2 152 -4 6 -2 12 3 12 6 0 11 5 11 11 0 5 -4 8 -9 5 -10 -7 -9 20 2 30 3 4 2
16 -4 27 -8 14 -8 18 0 13 12 -8 15 6 4 18 -9 9 -11 46 -2 40 9 -5 5 43 -4 53
-4 3 -2 12 4 20 9 10 8 13 -2 13 -9 0 -10 3 -4 8 6 4 11 16 11 27 0 11 -5 23
-11 27 -7 5 -7 8 0 8 15 0 18 806 3 833 -6 12 -6 17 0 13 11 -7 11 12 -1 32
-5 6 -6 16 -3 20 2 4 1 14 -4 22 -5 9 -4 20 3 29 9 12 9 13 0 7 -9 -5 -13 1
-14 21 -1 15 -1 31 0 36 0 4 -4 7 -10 7 -6 0 -9 9 -6 20 3 11 1 20 -5 20 -5 0
-7 4 -3 9 3 5 1 12 -5 16 -6 4 -8 11 -5 16 4 5 3 15 -2 22 -4 6 -8 14 -9 17
-2 12 -17 47 -28 70 -8 14 -11 31 -9 38 3 6 0 12 -5 12 -5 0 -16 15 -23 33 -7
17 -19 38 -26 45 -7 8 -11 17 -8 22 3 5 2 10 -2 12 -10 4 -53 65 -53 74 0 4
-9 15 -21 25 -11 9 -20 20 -19 23 1 9 -16 29 -72 86 -26 26 -44 51 -40 55 4 4
2 5 -3 4 -15 -5 -55 33 -48 44 4 6 1 7 -7 2 -8 -5 -18 -2 -26 9 -7 10 -16 18
-21 19 -4 1 -7 5 -6 9 2 5 0 8 -5 7 -18 -3 -52 15 -52 26 0 8 -10 12 -26 10
-19 -2 -24 1 -19 14 3 8 3 12 -1 8 -4 -4 -14 -1 -22 6 -13 10 -14 9 -7 -3 6
-11 3 -10 -12 3 -11 9 -23 14 -26 10 -4 -3 -7 -1 -7 4 0 6 -11 10 -25 9 -14
-2 -34 6 -46 17 -15 14 -24 17 -27 9 -2 -8 -11 -6 -30 6 -21 13 -24 14 -17 2
7 -12 6 -13 -6 -3 -12 10 -18 10 -29 0 -10 -9 -11 -9 -6 1 5 9 -6 12 -41 13
-26 0 -74 1 -106 2 -32 1 -57 -2 -57 -8 0 -5 -5 -3 -10 5 -5 8 -10 11 -10 6 0
-5 -8 -2 -17 5 -15 12 -16 12 -10 -4 5 -14 3 -16 -10 -9 -9 5 -25 7 -36 4 -14
-4 -18 -2 -13 7 6 10 3 10 -12 0 -16 -10 -23 -10 -35 0 -10 8 -17 9 -22 1 -3
-5 -11 -10 -16 -10 -6 0 -7 6 -3 13 5 7 1 7 -10 -2 -15 -13 -19 -13 -27 0 -7
12 -9 12 -9 -1 0 -13 -1 -13 -10 0 -8 12 -10 12 -10 1 0 -10 -3 -11 -13 -3 -8
7 -18 7 -27 2 -22 -14 -30 -12 -31 8 0 14 -2 14 -9 -3 -5 -11 -9 -14 -9 -6 -1
11 -4 11 -16 1 -12 -10 -15 -10 -15 1 0 12 -2 12 -9 0 -6 -9 -10 -10 -16 -2
-5 9 -11 9 -23 -1 -12 -10 -14 -10 -8 0 4 6 2 12 -3 12 -6 0 -11 -6 -11 -12 0
-9 -4 -8 -10 2 -8 12 -11 13 -19 1 -7 -11 -9 -11 -14 0 -5 12 -7 12 -15 0 -8
-11 -10 -11 -15 0 -5 12 -7 12 -15 0 -8 -11 -10 -11 -14 0 -5 12 -9 12 -28 1
-12 -8 -19 -9 -15 -3 9 15 -8 14 -24 -1 -11 -10 -13 -10 -7 0 8 14 -3 16 -23
3 -18 -12 -43 -3 -35 13 3 6 -2 2 -10 -8 -16 -20 -16 -20 -17 0 0 10 -3 13 -6
6 -2 -6 -9 -9 -14 -6 -16 9 -79 13 -79 4 0 -4 -16 -4 -35 0 -24 5 -35 4 -35
-4 0 -6 -5 -4 -10 4 -7 11 -10 11 -10 2 0 -10 -5 -10 -22 -1 -27 15 -28 15
-39 -3 -5 -7 -9 -8 -9 -3 0 12 -92 11 -110 0 -8 -5 -11 -4 -7 2 4 6 -18 9 -58
7 -36 -1 -65 2 -65 7 0 5 -7 9 -15 9 -8 0 -15 5 -15 11 0 7 -13 25 -30 41 -16
15 -30 33 -30 38 0 6 -6 10 -14 10 -8 0 -17 9 -21 20 -3 11 -19 29 -36 41 -16
11 -27 24 -24 28 5 10 -41 51 -57 51 -6 0 -9 3 -6 6 6 5 -174 194 -185 194 -3
0 -22 16 -42 37 -19 20 -35 32 -36 27 0 -5 -4 1 -9 14 -5 12 -16 22 -25 22 -8
0 -15 7 -15 15 0 8 -3 14 -7 14 -21 -3 -33 2 -28 12 4 6 -2 13 -14 16 -11 3
-23 13 -26 22 -3 10 -21 23 -40 31 -19 7 -33 16 -30 18 5 6 -46 52 -57 52 -15
0 -47 34 -41 43 3 6 1 7 -5 3 -7 -4 -21 2 -33 13 -12 11 -26 18 -31 15 -4 -3
-8 2 -8 11 0 9 -4 14 -9 11 -5 -3 -11 1 -15 9 -3 8 -12 15 -19 15 -8 0 -22 10
-31 23 -9 12 -14 16 -11 10 8 -17 -3 -16 -20 1 -8 7 -11 17 -7 21 4 5 2 5 -5
1 -6 -3 -16 2 -22 11 -6 11 -11 13 -11 5 0 -10 -3 -10 -14 0 -8 7 -11 17 -8
22 3 5 0 6 -6 2 -6 -3 -14 -1 -17 5 -4 5 -14 8 -22 5 -8 -3 -12 -2 -10 2 6 9
-19 33 -27 25 -3 -4 -6 0 -6 7 0 7 -3 10 -6 7 -4 -4 -15 3 -25 15 -13 14 -19
17 -19 7 -1 -9 -7 -7 -19 8 -10 12 -21 19 -25 16 -3 -4 -6 -1 -6 6 0 7 -4 9
-10 6 -5 -3 -10 -1 -10 4 0 6 -5 11 -10 11 -6 0 -28 11 -49 24 -21 14 -42 22
-45 19 -3 -4 -6 -1 -6 6 0 7 -5 9 -10 6 -6 -3 -13 0 -16 9 -3 8 -14 13 -25 11
-10 -2 -18 1 -16 8 1 7 -10 13 -26 15 -15 2 -25 7 -22 12 3 4 -2 11 -11 14 -9
4 -13 2 -8 -5 3 -6 -5 -3 -19 6 -14 9 -34 18 -44 20 -10 1 -16 9 -15 16 2 8 0
11 -4 7 -4 -4 -13 -3 -21 3 -7 6 -13 8 -13 4 0 -4 -8 -1 -17 6 -14 12 -16 12
-9 -1 4 -9 2 -8 -7 2 -8 10 -17 15 -20 11 -4 -3 -7 0 -7 8 0 11 -2 11 -10 -1
-8 -12 -10 -12 -10 5 0 17 -2 17 -10 5 -8 -12 -10 -12 -10 5 0 17 -2 17 -10 5
-7 -11 -10 -11 -10 -2 0 7 -4 10 -10 7 -5 -3 -10 1 -10 9 0 9 -4 16 -10 16 -5
0 -10 -5 -10 -12 0 -6 -10 -3 -22 8 -12 10 -18 13 -14 6 7 -11 4 -11 -12 -1
-12 7 -19 16 -17 19 2 4 -2 7 -10 7 -8 0 -12 -4 -9 -9 3 -4 -2 -5 -10 -2 -9 3
-14 10 -11 15 3 4 -4 6 -15 4 -11 -2 -20 1 -20 6 0 6 -4 7 -10 4 -5 -3 -10 0
-10 7 0 9 -3 9 -10 -2 -8 -13 -10 -13 -10 2 0 14 -7 17 -30 14 -21 -2 -30 1
-30 12 0 12 -3 12 -15 2 -12 -10 -15 -10 -15 0 0 8 -9 11 -25 8 -15 -3 -25 -1
-25 7 0 11 -13 15 -55 16 -11 0 -22 4 -25 10 -4 5 -23 10 -43 11 -21 1 -34 5
-30 11 4 6 1 7 -7 2 -7 -4 -16 -2 -21 6 -7 12 -9 11 -10 -1 0 -10 -3 -8 -9 5
l-9 20 0 -20 c-1 -16 -3 -17 -11 -5 -5 8 -19 15 -32 15 -13 0 -29 4 -37 9 -10
7 -12 5 -7 -5 4 -8 0 -5 -8 5 -12 15 -16 16 -16 5 0 -8 -3 -10 -8 -4 -4 6 -25
12 -47 14 -22 1 -48 8 -59 13 -14 7 -17 7 -11 -2 4 -7 -5 -4 -21 6 -29 18 -29
18 -14 -1 15 -19 14 -19 -10 -4 -14 8 -36 14 -50 13 -14 -1 -30 2 -37 8 -7 5
-13 5 -17 -1 -4 -6 -16 -4 -33 4 -20 10 -31 11 -40 3 -7 -6 -13 -6 -13 -1 0 5
-15 9 -32 8 -18 0 -39 4 -47 9 -11 8 -13 8 -7 -1 4 -7 2 -13 -3 -13 -6 0 -11
6 -11 13 0 8 -4 7 -10 -3 -9 -13 -10 -13 -10 0 0 13 -1 13 -10 0 -8 -12 -10
-12 -10 5 0 17 -2 17 -10 5 -5 -8 -10 -11 -10 -6 0 5 -8 2 -17 -5 -14 -12 -16
-12 -11 2 4 11 -1 15 -17 15 -13 0 -21 -4 -19 -8 3 -5 10 -5 16 -2 7 4 8 2 4
-4 -5 -9 -13 -9 -29 0 -25 13 -109 20 -102 8 6 -10 -15 -7 -32 3 -8 5 -13 4
-13 -2 0 -6 -5 -11 -11 -11 -5 0 -7 5 -4 10 3 6 1 10 -4 10 -6 0 -11 -4 -11
-10 0 -5 -5 -10 -11 -10 -5 0 -7 5 -4 10 3 6 1 10 -4 10 -6 0 -11 -4 -11 -9 0
-14 -29 -21 -36 -9 -4 6 -3 8 4 4 6 -3 13 -3 16 2 2 4 -9 8 -25 7 -16 0 -29
-4 -29 -9 0 -6 -5 -5 -11 1 -9 9 -20 8 -43 -4 -22 -11 -31 -12 -34 -4 -3 9 -7
9 -18 0 -12 -10 -13 -9 -8 5 3 9 4 16 1 16 -3 0 -7 -6 -10 -13z m347 -9 c-3
-4 -11 -5 -19 -1 -21 7 -19 12 4 10 11 0 18 -5 15 -9z m2256 -1888 c0 10 4 9
17 -1 9 -8 14 -9 11 -4 -10 16 113 10 123 -6 6 -9 9 -10 9 -2 0 19 33 21 54 4
11 -9 16 -11 13 -5 -4 7 0 15 8 18 9 3 18 -1 22 -10 5 -13 8 -13 15 -2 8 11
10 11 15 -1 5 -11 7 -11 15 0 8 12 10 12 15 0 5 -11 7 -11 14 0 8 12 11 11 19
-1 8 -13 10 -12 11 5 1 18 2 18 6 2 5 -18 6 -18 24 -1 16 14 19 15 14 3 -4
-10 0 -16 10 -16 8 0 15 5 15 10 0 5 8 3 17 -4 15 -12 16 -12 10 6 -7 20 -7
20 8 1 15 -20 15 -20 16 0 0 18 1 18 8 1 8 -22 21 -24 32 -5 7 10 9 10 9 -2 0
-13 1 -13 10 0 8 12 10 12 10 1 0 -10 3 -11 14 -2 10 8 16 9 21 1 3 -5 11 -10
16 -10 6 0 7 5 4 10 -8 13 17 8 28 -5 4 -6 11 -4 17 5 8 12 10 12 10 1 0 -11
3 -11 17 0 11 10 14 10 9 2 -9 -16 -1 -16 26 -2 15 8 19 8 14 0 -5 -8 4 -9 29
-5 29 4 35 3 29 -8 -6 -10 -5 -11 8 -1 8 7 18 10 22 6 4 -4 11 -1 16 7 6 8 10
10 10 4 0 -6 52 -10 149 -11 82 0 154 -4 160 -7 6 -4 11 -1 11 6 0 9 3 9 10
-2 7 -11 10 -11 10 -2 0 10 5 10 20 2 15 -8 20 -8 20 2 0 9 3 9 10 -2 8 -12
11 -13 19 -1 6 10 10 10 16 1 6 -9 10 -9 16 1 6 10 9 11 9 2 0 -7 5 -13 11
-13 5 0 7 5 3 12 -4 7 -3 8 5 4 19 -12 101 -14 101 -2 0 5 6 2 13 -9 11 -14
16 -15 22 -5 6 9 4 11 -5 5 -9 -5 -11 -4 -6 4 6 8 12 9 20 2 7 -6 16 -8 19 -4
4 3 7 0 7 -7 0 -11 3 -11 12 -2 8 8 17 8 31 0 17 -9 19 -8 13 8 -6 16 -4 15
14 -3 23 -26 32 -29 24 -10 -3 8 3 13 15 13 11 0 18 -3 15 -7 -5 -9 89 -5 105
6 9 5 12 4 8 -2 -4 -6 0 -14 9 -17 8 -3 13 -2 10 3 -3 5 1 11 9 15 8 3 17 0
21 -5 3 -6 15 -9 25 -6 11 3 19 0 19 -6 0 -7 7 -3 15 7 8 11 15 15 15 8 0 -7
44 -11 148 -12 81 0 160 -3 175 -5 20 -4 26 -2 22 6 -6 8 -2 8 12 0 11 -6 24
-7 28 -3 5 4 5 -2 1 -12 -7 -20 -7 -20 15 0 12 10 19 13 15 7 -7 -13 4 -17 32
-14 6 1 12 -3 12 -8 0 -6 7 -8 15 -5 9 4 18 -1 21 -11 5 -13 9 -14 15 -3 7 10
9 11 9 0 0 -7 5 -10 10 -7 6 3 13 -1 16 -9 3 -9 10 -14 14 -11 5 3 15 -2 23
-10 9 -8 20 -15 25 -15 5 0 23 -13 40 -30 18 -16 37 -30 43 -30 6 0 8 -7 5
-16 -3 -8 -2 -13 3 -9 10 5 61 -50 61 -66 0 -5 6 -9 14 -9 8 0 18 -5 22 -12 5
-7 3 -8 -7 -3 -8 5 -7 0 4 -12 9 -11 14 -23 10 -27 -5 -4 -2 -6 6 -4 8 2 17
-6 19 -16 2 -11 14 -28 26 -39 11 -10 15 -16 9 -12 -18 9 -16 -3 2 -22 8 -8
13 -19 10 -24 -4 -5 -1 -9 4 -9 6 0 11 -7 11 -15 0 -8 4 -15 10 -15 5 0 7 -7
4 -15 -4 -8 -1 -15 6 -15 6 0 8 -5 5 -10 -4 -6 1 -22 10 -37 12 -18 13 -23 4
-18 -8 3 -6 0 4 -8 12 -10 15 -17 7 -22 -7 -4 -8 -11 -1 -18 5 -7 11 -28 12
-47 2 -19 8 -38 14 -42 6 -5 5 -8 -4 -8 -9 0 -10 -4 -4 -12 5 -7 9 -52 9 -100
-1 -53 3 -88 9 -88 7 0 7 -3 0 -8 -6 -4 -10 -96 -10 -240 0 -129 -3 -236 -8
-239 -4 -2 -4 -10 0 -16 11 -17 10 -67 0 -67 -5 0 -3 -8 4 -17 12 -15 12 -16
-1 -8 -13 8 -13 7 -1 -9 11 -12 11 -20 3 -28 -8 -8 -8 -15 -1 -24 7 -8 7 -14
0 -18 -6 -4 -7 -15 -1 -30 5 -15 5 -27 -3 -35 -7 -7 -7 -11 -1 -11 12 0 12
-29 0 -48 -4 -7 -2 -12 4 -12 6 0 8 -5 4 -12 -7 -11 -9 -47 -4 -65 6 -20 4
-39 -4 -50 -5 -9 -4 -13 5 -13 9 0 10 -3 4 -8 -15 -10 -17 -52 -3 -52 9 0 9
-3 0 -12 -16 -16 -15 -31 1 -22 8 5 8 2 -2 -9 -11 -14 -11 -17 0 -17 9 0 10
-3 4 -8 -13 -8 -13 -22 -1 -41 7 -10 6 -12 -4 -6 -9 6 -10 2 -5 -15 5 -15 4
-20 -4 -16 -14 9 -2 -26 13 -36 8 -6 8 -8 0 -8 -7 0 -11 -35 -12 -97 -1 -54
-2 -105 -2 -113 -1 -8 1 -30 3 -47 3 -18 0 -33 -5 -33 -5 0 -4 -9 2 -20 6 -11
7 -20 3 -20 -4 0 -6 -45 -3 -100 3 -55 3 -100 0 -100 -3 0 -4 -28 -4 -62 1
-35 -2 -68 -7 -73 -4 -6 -4 -17 1 -24 9 -15 2 -44 -9 -37 -3 2 -5 -16 -4 -40
0 -24 -4 -44 -9 -44 -6 0 -8 -15 -6 -34 2 -19 0 -32 -4 -30 -9 6 -16 -9 -22
-46 -2 -14 -8 -24 -14 -23 -6 2 -9 -6 -7 -17 2 -11 0 -20 -5 -20 -5 0 -7 -7
-3 -15 3 -9 2 -15 -3 -13 -5 2 -11 -1 -12 -7 -5 -15 -36 -69 -43 -75 -3 -3
-19 -26 -37 -51 -17 -26 -38 -49 -47 -52 -8 -4 -15 -14 -15 -23 0 -10 -2 -15
-5 -12 -3 3 -27 -14 -52 -38 -26 -23 -50 -41 -55 -38 -4 3 -8 -3 -8 -13 0 -15
-2 -16 -10 -3 -8 13 -10 13 -10 -2 0 -12 -5 -15 -17 -11 -11 4 -14 3 -9 -5 4
-7 1 -12 -8 -12 -9 0 -16 -5 -16 -11 0 -5 -5 -7 -10 -4 -6 4 -22 -1 -36 -10
-13 -9 -29 -13 -34 -10 -6 3 -10 1 -10 -5 0 -5 -15 -10 -32 -10 -72 1 -79 0
-72 -11 4 -8 0 -8 -15 0 -16 9 -21 9 -21 0 0 -7 -8 -5 -20 6 -18 17 -20 17
-14 2 5 -14 2 -16 -12 -11 -11 4 -25 12 -33 18 -12 9 -13 8 -6 -3 6 -11 2 -13
-23 -8 -22 4 -32 3 -33 -6 0 -9 -2 -9 -6 1 -2 6 -9 9 -15 6 -6 -4 -14 0 -19 7
-5 8 -9 9 -9 3 0 -14 -57 -16 -66 -3 -3 5 -11 6 -17 2 -18 -11 -127 -10 -120
1 4 5 1 6 -8 0 -19 -12 -69 -11 -69 1 0 6 -4 4 -9 -4 -6 -9 -11 -10 -15 -2 -5
8 -13 8 -28 0 -16 -9 -23 -8 -29 2 -7 11 -9 11 -9 -1 0 -9 -3 -11 -8 -5 -9 13
-35 18 -27 5 3 -6 -3 -10 -16 -10 -21 0 -69 -42 -69 -61 0 -5 -8 -9 -17 -9
-14 0 -15 -2 -4 -9 11 -7 9 -11 -8 -20 -11 -6 -20 -15 -19 -19 2 -10 -36 -72
-44 -72 -5 0 -8 -6 -8 -13 0 -7 -9 -19 -19 -27 -11 -7 -18 -17 -15 -22 3 -4
-2 -11 -10 -14 -9 -3 -14 -10 -11 -15 3 -4 -4 -13 -15 -19 -11 -6 -19 -14 -17
-19 1 -5 -10 -20 -25 -34 -15 -14 -24 -28 -21 -31 3 -3 -2 -8 -11 -12 -9 -3
-16 -13 -16 -21 0 -8 -5 -11 -12 -7 -8 5 -9 2 -5 -9 3 -9 2 -16 -2 -14 -10 2
-91 -82 -91 -95 0 -4 -7 -8 -15 -8 -8 0 -15 -8 -15 -17 0 -15 -2 -16 -10 -3
-8 13 -10 13 -10 -2 0 -10 -9 -22 -20 -28 -11 -6 -17 -16 -14 -22 5 -7 2 -9
-9 -5 -9 3 -16 3 -14 -2 1 -4 -15 -23 -35 -43 -21 -19 -38 -33 -38 -29 0 3 -5
-2 -11 -11 -5 -10 -16 -18 -23 -18 -8 0 -20 -8 -27 -17 -13 -17 -13 -17 6 -3
18 14 19 14 7 -2 -8 -10 -17 -17 -20 -16 -15 3 -42 -15 -42 -28 0 -8 -3 -13
-7 -13 -20 3 -34 -2 -28 -10 5 -9 -32 -27 -47 -23 -5 1 -8 -5 -8 -13 0 -13 -6
-17 -26 -14 -3 0 -14 -10 -25 -22 -10 -12 -19 -18 -19 -13 0 5 -4 5 -8 -1 -4
-5 -16 -17 -26 -25 -18 -13 -19 -13 -12 0 4 8 -2 4 -14 -10 -12 -14 -19 -18
-15 -10 4 8 -1 6 -9 -4 -9 -11 -16 -16 -16 -10 0 5 -3 5 -8 -1 -10 -14 -55
-39 -47 -26 3 6 1 11 -6 11 -8 0 -7 6 4 18 20 23 64 133 61 154 -1 10 3 16 9
15 7 -1 11 8 11 21 -1 12 2 22 7 22 5 0 6 7 3 15 -4 8 -1 15 6 15 6 0 9 4 6 8
-3 5 2 21 10 37 8 15 12 30 9 33 -3 3 -1 10 4 16 6 7 12 23 15 36 2 14 11 46
19 72 8 26 12 49 9 52 -3 4 -1 6 4 6 5 0 11 8 12 18 2 23 10 57 13 57 1 0 3 9
5 20 1 11 6 31 9 45 4 14 7 31 7 38 1 6 4 12 8 12 4 0 6 10 5 23 -1 12 1 27 5
32 10 13 18 125 9 119 -4 -2 -10 12 -13 31 -4 19 -11 35 -16 35 -5 0 -12 9
-15 20 -4 11 -11 18 -16 15 -5 -4 -9 -1 -9 6 0 7 -3 9 -7 6 -3 -4 -13 -2 -20
5 -19 15 -53 18 -53 4 0 -7 -3 -7 -8 -1 -4 6 -16 10 -27 10 -11 0 -23 -4 -27
-10 -5 -7 -8 -7 -8 0 0 12 -65 13 -76 2 -4 -4 -14 -2 -21 5 -11 9 -17 9 -24
-3 -5 -8 -9 -9 -9 -3 0 14 -33 14 -42 0 -6 -8 -8 -8 -8 0 0 6 -12 10 -27 10
-16 -1 -36 2 -45 6 -14 7 -16 5 -11 -9 6 -16 5 -16 -10 -4 -9 7 -24 11 -32 7
-8 -3 -15 0 -16 7 0 7 -2 8 -5 1 -5 -11 -55 -10 -75 1 -8 6 -10 4 -4 -4 6 -10
3 -11 -14 -2 -18 10 -21 9 -21 -6 0 -15 -2 -15 -15 3 -11 14 -14 15 -15 4 0
-13 -1 -13 -10 0 -9 13 -10 13 -10 0 -1 -11 -4 -10 -15 4 -12 16 -15 17 -15 4
0 -11 -7 -14 -27 -10 -16 2 -33 9 -40 14 -7 6 -15 3 -22 -9 -9 -15 -10 -16
-11 -2 0 13 -10 16 -49 15 -35 -1 -47 2 -44 12 3 7 -3 12 -16 12 -12 0 -35 7
-51 15 -17 9 -32 14 -35 13 -3 -2 -18 9 -34 25 -16 15 -37 27 -46 27 -11 0
-15 5 -11 16 3 8 2 13 -2 10 -5 -3 -21 6 -37 20 -15 13 -24 24 -19 25 5 0 -1
4 -13 9 -13 5 -23 16 -23 24 0 9 -9 20 -20 26 -11 6 -18 15 -15 21 4 5 1 9 -5
9 -6 0 -15 12 -20 26 -6 14 -15 22 -20 19 -6 -4 -9 -3 -8 2 4 14 -13 53 -23
53 -5 0 -9 9 -9 19 0 11 -4 21 -10 23 -5 2 -11 12 -13 23 -2 11 -9 30 -15 43
-7 12 -9 22 -5 22 4 0 4 4 -2 8 -14 10 -39 56 -26 48 5 -4 9 2 8 14 -1 11 -4
20 -8 20 -4 0 -9 9 -12 20 -3 11 0 20 6 20 7 0 5 5 -3 10 -8 5 -11 10 -6 10 5
0 2 8 -5 17 -12 15 -12 16 1 8 12 -7 13 -6 4 6 -6 8 -12 39 -14 69 -1 30 -3
69 -4 85 0 17 -5 36 -10 44 -6 10 -6 12 3 7 8 -5 11 15 9 78 -2 47 0 86 4 86
4 0 5 7 1 17 -5 13 -8 77 -3 86 0 1 2 129 3 285 1 188 5 282 12 282 5 0 3 5
-5 10 -13 8 -13 13 -2 30 7 11 9 26 5 33 -11 18 -11 57 0 64 5 3 5 8 -2 13 -8
5 -9 14 -2 32 7 18 6 29 -2 37 -8 8 -8 11 2 11 10 0 11 3 2 14 -9 10 -9 16 -1
21 8 5 8 11 -1 21 -9 11 -8 14 2 14 11 0 11 2 -1 10 -13 9 -13 10 0 10 9 0 11
3 5 8 -12 8 -13 32 -2 50 5 7 3 12 -5 13 -10 0 -10 2 1 6 11 5 11 7 0 15 -11
8 -11 11 -1 15 10 4 10 8 0 21 -10 12 -10 14 0 8 6 -4 12 -2 12 3 0 6 -6 11
-12 12 -10 0 -10 2 -1 6 9 3 10 10 3 24 -7 13 -7 19 0 19 12 0 9 22 -5 32 -6
5 -6 8 2 8 12 0 12 17 0 37 -4 6 -2 15 4 19 8 5 9 3 4 -6 -6 -9 -4 -11 4 -6 9
6 9 12 -3 24 -11 13 -12 22 -4 36 9 15 8 21 -2 24 -10 4 -10 6 1 12 10 7 10
12 -2 26 -9 11 -9 15 -1 10 7 -4 12 -1 12 9 0 9 -5 13 -11 9 -6 -3 -3 6 7 22
13 19 14 25 5 20 -11 -7 -13 -4 -9 12 4 13 1 22 -5 22 -9 0 -9 2 -1 8 7 4 11
46 12 107 0 55 2 102 3 105 1 3 1 13 0 23 -1 9 3 17 8 17 6 0 11 5 11 11 0 5
-4 7 -10 4 -6 -4 -6 3 0 21 6 15 8 29 5 32 -2 3 1 12 7 20 13 15 14 18 16 64
1 15 8 33 15 40 8 7 12 19 9 26 -2 6 1 12 8 12 6 0 9 4 6 9 -3 4 1 17 9 27 8
10 15 27 15 37 0 9 5 17 10 17 6 0 10 7 10 15 0 8 5 15 11 15 5 0 8 4 4 9 -3
5 6 21 20 35 14 14 25 30 25 35 0 5 10 17 22 25 12 9 19 16 16 16 -4 0 16 24
45 54 29 29 57 53 62 52 6 0 9 4 8 11 -2 7 3 10 10 8 6 -3 23 5 37 16 14 11
19 17 11 13 -9 -4 -12 -3 -8 4 4 5 15 9 24 8 10 -2 24 3 32 11 7 8 19 12 26 9
8 -3 16 3 20 12 5 14 7 14 15 2 8 -12 10 -12 10 4 0 15 3 16 14 7 11 -9 15 -8
20 5 5 13 10 14 18 6 8 -8 15 -7 25 6 8 9 12 12 9 6 -9 -17 22 -25 36 -10 7 7
21 11 32 8 14 -4 17 -2 11 9 -5 8 1 5 13 -5 15 -13 22 -15 22 -6z"/>
<path d="M8270 8409 c0 -5 5 -7 10 -4 6 3 10 8 10 11 0 2 -4 4 -10 4 -5 0 -10
-5 -10 -11z"/>
<path d="M4270 6131 c0 -4 -14 -7 -31 -5 -16 2 -28 0 -24 -5 3 -5 1 -11 -4
-13 -12 -4 -21 -78 -10 -78 4 0 6 -9 4 -20 -2 -11 0 -20 6 -20 5 0 9 -5 9 -11
0 -5 -4 -7 -10 -4 -6 3 -7 -1 -4 -9 3 -9 11 -16 16 -16 6 0 5 -7 -3 -16 -10
-13 -10 -17 2 -25 8 -5 10 -9 6 -9 -4 0 -3 -9 3 -19 7 -14 6 -21 -3 -24 -9 -4
-9 -6 1 -6 6 -1 12 -6 12 -12 0 -5 -6 -7 -12 -3 -10 6 -10 4 -2 -7 18 -22 -6
-69 -38 -75 -5 -1 -15 -2 -24 -3 -8 0 -13 -5 -10 -10 4 -5 -2 -8 -11 -6 -10 1
-24 -2 -30 -8 -7 -5 -13 -6 -13 -2 0 5 -9 -2 -20 -15 -13 -15 -20 -18 -20 -9
0 11 -2 11 -10 -1 -5 -8 -14 -16 -20 -16 -5 -1 -15 -2 -21 -3 -5 0 -7 -5 -4
-11 3 -5 -1 -10 -9 -10 -8 0 -22 -7 -30 -16 -12 -12 -16 -12 -16 -2 -1 7 -7 2
-15 -12 -8 -14 -14 -21 -15 -16 0 4 -9 -2 -20 -15 -18 -21 -19 -22 -14 -4 4
14 0 11 -14 -8 -11 -16 -23 -29 -28 -30 -5 -1 -8 -5 -6 -9 1 -5 -7 -8 -19 -8
-11 0 -18 -4 -14 -9 3 -5 -4 -12 -15 -16 -11 -4 -18 -11 -15 -16 4 -5 1 -9 -4
-9 -11 0 -51 -36 -51 -45 0 -3 -3 -5 -7 -6 -5 0 -14 -11 -21 -25 -7 -13 -17
-22 -22 -19 -6 4 -10 -3 -10 -15 0 -12 -4 -18 -10 -15 -9 6 -15 -8 -11 -29 1
-5 -5 -6 -14 -2 -9 3 -14 2 -10 -3 3 -5 -2 -17 -11 -25 -8 -9 -12 -16 -7 -16
4 0 3 -4 -3 -8 -6 -4 -19 -22 -28 -39 -9 -18 -21 -33 -27 -33 -6 0 -9 -6 -6
-14 3 -8 -1 -20 -8 -26 -8 -7 -14 -15 -13 -18 1 -4 -7 -25 -17 -47 -10 -22
-18 -43 -17 -47 1 -5 -3 -8 -9 -8 -5 0 -8 -4 -4 -9 3 -5 1 -12 -4 -16 -6 -3
-8 -12 -4 -20 3 -8 0 -15 -6 -15 -6 0 -10 -3 -10 -7 1 -5 0 -10 -1 -13 -4 -12
-11 -47 -13 -67 -2 -12 -6 -25 -10 -29 -4 -4 -2 -13 5 -21 9 -11 8 -13 -2 -11
-7 2 -15 -3 -18 -11 -3 -9 0 -11 8 -6 10 6 11 4 4 -6 -4 -8 -9 -18 -10 -24
-17 -88 -20 -137 -11 -152 4 -6 3 -14 -2 -18 -6 -3 -7 -13 -4 -22 5 -12 3 -14
-8 -8 -12 8 -12 6 0 -8 11 -14 11 -20 0 -34 -10 -12 -10 -15 -1 -9 9 6 11 -1
8 -28 -2 -19 -7 -40 -10 -45 -4 -5 1 -14 10 -19 15 -8 15 -10 -1 -16 -14 -5
-15 -9 -5 -21 10 -12 10 -18 0 -30 -7 -8 -8 -15 -3 -15 5 0 9 -9 10 -20 1 -11
-2 -18 -8 -15 -5 4 -4 -6 2 -22 12 -31 12 -33 -3 -50 -7 -9 -7 -13 1 -13 10 0
10 -12 1 -55 -5 -22 1 -36 11 -29 8 5 8 1 0 -14 -15 -28 -14 -45 2 -36 9 6 9
5 0 -7 -17 -21 -17 -22 -4 -48 8 -14 9 -21 2 -17 -14 9 -14 0 0 -26 6 -12 7
-18 1 -14 -6 4 -8 -8 -5 -32 2 -20 5 -64 6 -97 1 -33 7 -63 12 -67 6 -5 6 -8
-2 -8 -6 0 -10 -9 -8 -20 4 -18 -6 -25 -29 -21 -5 1 -6 -5 -2 -14 3 -9 2 -13
-4 -10 -16 10 -98 -84 -92 -106 1 -5 -2 -9 -8 -9 -5 0 -6 -7 -3 -17 4 -11 3
-14 -6 -9 -9 6 -12 2 -9 -11 2 -11 -4 -28 -12 -38 -9 -11 -10 -16 -2 -11 6 4
12 2 12 -3 0 -6 -4 -11 -10 -11 -5 0 -10 -5 -10 -11 0 -5 3 -8 8 -6 4 3 7 -5
7 -18 0 -13 -3 -21 -7 -18 -5 2 -8 -5 -8 -17 0 -14 4 -19 13 -14 9 6 9 4 1 -7
-6 -8 -9 -23 -7 -34 2 -11 5 -27 5 -35 0 -8 6 -21 12 -29 8 -11 8 -13 0 -8 -8
4 -7 -7 2 -34 8 -22 12 -45 9 -50 -4 -5 -1 -9 6 -9 7 0 9 -3 6 -7 -4 -3 0 -17
9 -31 11 -17 12 -22 3 -17 -8 5 -7 0 3 -11 9 -10 17 -22 17 -27 2 -25 15 -57
23 -57 5 0 7 -4 3 -9 -3 -5 -1 -12 5 -16 6 -4 8 -11 5 -16 -4 -5 -3 -9 2 -9 8
0 33 -47 33 -63 0 -6 7 -15 16 -21 8 -6 16 -18 17 -26 2 -8 6 -21 10 -27 5 -7
5 -13 0 -13 -4 0 -3 -4 3 -8 14 -9 74 -130 74 -149 0 -8 5 -11 10 -8 9 5 15
-23 11 -47 0 -5 4 -7 11 -5 6 1 16 -13 21 -30 5 -18 14 -33 19 -33 5 0 6 -5 3
-10 -3 -6 0 -12 7 -15 8 -3 15 -18 16 -33 1 -15 10 -34 19 -42 10 -9 19 -20
20 -25 4 -21 32 -80 34 -70 1 6 4 -3 8 -20 4 -16 12 -29 19 -28 6 2 9 -3 6
-11 -3 -7 1 -20 9 -27 7 -8 14 -18 15 -24 6 -27 14 -45 23 -45 5 0 9 -9 9 -20
0 -11 4 -20 9 -20 10 0 27 -39 23 -53 -1 -5 2 -6 7 -3 5 4 13 -4 17 -16 3 -12
15 -31 25 -42 11 -11 19 -26 19 -33 0 -8 4 -11 10 -8 6 3 7 -1 4 -9 -4 -9 1
-18 10 -22 9 -3 16 -12 16 -20 0 -8 5 -14 10 -14 6 0 10 -7 10 -15 0 -7 8 -19
18 -24 9 -6 13 -11 8 -11 -4 0 6 -13 23 -29 17 -16 31 -33 31 -39 0 -5 7 -13
16 -16 8 -3 12 -11 8 -17 -4 -7 -3 -10 2 -7 12 7 65 -47 56 -57 -4 -4 -2 -6 3
-5 21 5 36 0 30 -10 -6 -10 9 -15 30 -10 6 1 7 -1 3 -5 -8 -9 14 -35 25 -28 4
2 7 -1 7 -7 0 -6 4 -9 9 -6 5 3 12 -1 15 -10 3 -8 10 -13 15 -10 5 3 12 -1 15
-10 4 -9 13 -14 21 -10 8 3 15 1 15 -4 0 -6 7 -10 15 -10 8 0 15 -5 15 -11 0
-5 4 -8 9 -5 5 3 21 -4 37 -16 15 -13 24 -16 19 -9 -6 11 -4 13 11 7 10 -5 25
-9 32 -9 6 0 12 -4 12 -9 0 -5 5 -6 10 -3 6 3 10 1 10 -6 0 -7 6 -4 14 7 14
18 15 18 22 1 4 -11 13 -16 21 -13 8 3 24 1 35 -5 13 -7 18 -7 14 -1 -4 6 2
10 14 9 11 -1 20 -5 20 -10 0 -5 8 -3 17 4 15 12 16 12 8 -1 -6 -12 -5 -13 6
-3 16 16 33 17 23 2 -5 -8 -1 -8 14 0 10 6 29 8 41 6 11 -2 21 0 21 5 0 5 7 7
15 4 8 -4 21 -2 28 4 6 5 19 10 27 11 55 4 72 8 79 19 4 7 14 12 22 10 8 -2
13 3 11 10 -2 10 2 10 19 1 16 -8 20 -8 14 1 -4 7 1 13 14 17 12 3 21 9 21 14
0 5 5 9 12 9 21 0 88 52 81 63 -3 6 -1 7 5 3 7 -4 12 -2 12 5 0 7 3 10 6 7 7
-8 110 94 107 104 -2 5 5 8 14 8 9 0 13 3 10 6 -4 4 6 18 21 32 15 13 20 21
12 16 -13 -7 -13 -5 -1 9 7 9 17 14 22 11 5 -3 9 2 9 10 0 9 9 25 20 36 11 11
17 20 13 20 -5 0 1 7 11 15 11 8 16 15 12 15 -4 0 3 15 16 33 13 17 23 35 23
39 0 4 9 14 20 23 11 9 14 14 8 10 -20 -10 -15 4 10 28 12 12 23 27 23 32 2
21 17 55 23 55 4 0 13 16 20 35 7 19 17 35 22 35 6 0 7 5 4 10 -3 6 -1 10 4
10 6 0 10 3 10 8 -4 22 2 42 11 37 6 -3 10 1 10 9 0 18 41 100 52 104 4 2 8 8
8 13 0 6 -6 7 -12 4 -7 -4 -3 2 9 13 12 11 20 22 17 24 -2 3 2 17 9 31 8 15
16 25 18 22 3 -2 6 6 6 18 1 12 7 23 13 25 5 2 10 9 10 15 0 7 9 29 20 50 11
20 17 37 13 37 -5 0 0 5 10 11 9 5 17 16 17 24 0 8 9 30 20 50 11 19 17 35 13
35 -3 0 0 8 9 18 14 16 33 56 37 77 1 6 9 14 17 18 8 4 14 13 14 20 0 7 -4 6
-10 -3 -5 -8 -10 -11 -10 -6 0 6 10 21 23 34 12 14 15 22 7 18 -8 -4 -6 0 4 8
11 9 16 16 12 16 -5 0 -3 7 4 15 7 8 10 15 6 15 -4 0 1 11 10 25 9 14 13 25 9
25 -4 0 -2 7 5 15 7 8 10 22 6 30 -4 11 -2 14 6 9 7 -5 9 -2 5 8 -3 9 -1 20 3
24 5 5 10 24 12 42 1 17 5 32 9 32 4 0 6 11 4 25 -1 14 1 25 4 25 4 0 8 12 9
28 0 15 2 34 2 42 3 38 -11 135 -21 147 -6 7 -8 13 -4 13 4 0 2 7 -5 15 -7 8
-9 15 -6 15 8 0 -11 24 -38 48 -10 9 -23 22 -30 28 -6 6 -18 13 -26 16 -8 2
-15 18 -15 35 0 18 3 29 7 27 4 -3 8 0 8 5 0 6 -5 11 -10 11 -7 0 -7 6 -1 19
6 10 7 21 4 25 -10 9 -11 46 -2 46 8 0 4 33 -5 49 -4 5 0 12 6 14 9 4 9 6 1 6
-8 1 -9 10 -4 29 5 15 6 36 4 47 -9 47 -10 66 -3 70 3 2 6 31 5 64 -2 39 1 58
8 54 6 -4 7 -1 2 7 -11 18 -13 77 -4 92 4 7 3 20 -2 30 -7 13 -6 18 3 18 8 0
9 3 3 8 -14 10 -15 42 -1 42 6 0 4 5 -4 10 -8 5 -10 10 -5 10 6 0 9 22 7 56
-2 43 0 54 10 48 8 -5 8 -1 -2 10 -8 10 -15 39 -15 65 0 25 -5 52 -9 60 -7 11
-6 12 5 6 11 -7 12 -6 2 7 -7 8 -10 18 -6 21 3 4 0 14 -8 24 -12 15 -12 16 1
8 11 -7 10 -2 -4 19 -10 16 -12 25 -5 21 9 -6 10 -3 5 11 -8 21 -17 59 -19 87
-1 9 -4 17 -7 17 -5 0 -10 22 -13 63 -1 9 -5 17 -10 17 -4 0 -5 5 -2 10 3 6 1
10 -5 10 -6 0 -9 4 -6 8 3 5 -1 20 -8 33 -7 14 -12 33 -10 42 1 9 -3 15 -9 14
-7 -1 -11 6 -11 16 1 9 -2 17 -7 17 -5 0 -9 6 -9 13 0 21 -30 77 -41 77 -6 0
-8 4 -5 9 3 5 -5 20 -17 33 -13 14 -21 31 -19 38 3 7 0 10 -7 6 -6 -4 -11 -2
-11 5 0 6 -12 23 -27 37 -16 13 -22 21 -16 18 9 -5 11 -2 7 9 -4 9 -9 14 -11
11 -7 -7 -32 18 -27 26 3 4 -5 12 -16 18 -11 6 -18 15 -15 20 3 5 -4 11 -15
15 -11 3 -20 10 -20 15 0 9 -47 60 -55 60 -2 0 -26 21 -53 48 -81 76 -122 112
-130 112 -4 0 -18 12 -31 25 -12 14 -27 22 -32 19 -5 -3 -8 0 -7 8 2 7 -5 12
-14 12 -10 -1 -15 2 -12 7 3 5 -6 14 -20 21 -14 6 -26 15 -26 20 0 4 -7 8 -15
8 -8 0 -15 5 -15 10 0 6 -5 10 -10 10 -6 0 -20 9 -32 20 -12 11 -28 20 -35 20
-7 0 -13 5 -13 11 0 5 -4 8 -9 5 -5 -3 -11 1 -15 9 -3 8 -14 15 -24 15 -11 0
-25 7 -32 15 -7 8 -16 12 -21 9 -5 -3 -9 -1 -9 4 0 6 -11 13 -25 16 -14 4 -23
11 -20 16 4 6 -1 7 -11 3 -13 -5 -15 -3 -9 8 4 8 4 11 0 6 -5 -4 -17 1 -28 10
-10 10 -21 17 -23 16 -2 -2 -13 -3 -25 -3 -13 0 -18 4 -13 12 5 8 2 9 -9 5 -9
-3 -19 -2 -22 4 -4 5 -11 7 -16 4 -5 -4 -9 -2 -9 3 0 6 -7 13 -16 16 -10 4
-13 2 -8 -6 4 -6 -3 -4 -17 5 -13 9 -34 17 -46 17 -13 0 -23 4 -23 8 0 4 -8 8
-17 9 -47 2 -73 8 -73 15 0 5 -13 6 -30 3 -20 -4 -30 -1 -30 7 0 7 -5 5 -11
-5 -8 -14 -14 -16 -24 -7 -8 7 -20 8 -26 4 -8 -4 -9 -3 -5 4 4 7 2 12 -3 12
-6 0 -11 -4 -11 -9z m-279 -1753 c0 -9 2 -9 6 1 4 11 7 11 13 0 7 -10 11 -10
24 0 13 11 19 11 33 0 11 -10 14 -10 9 -1 -4 7 -1 12 9 12 10 0 14 -5 9 -12
-5 -10 -4 -10 6 -1 10 9 17 9 26 2 9 -7 19 -7 33 1 15 7 21 7 21 0 0 -7 6 -8
19 0 14 7 22 7 27 -2 5 -7 3 -8 -6 -3 -9 5 -11 4 -6 -4 6 -9 11 -9 21 -1 9 8
17 7 28 -5 12 -11 17 -12 20 -2 4 9 7 9 18 0 9 -9 16 -10 26 -2 9 8 13 8 13 1
0 -6 8 -11 18 -11 21 0 44 -5 57 -12 6 -4 22 -6 37 -5 14 1 25 -1 22 -5 -2 -4
3 -10 12 -13 10 -4 13 -2 8 7 -6 9 -5 9 7 0 8 -6 26 -13 39 -15 14 -2 31 -7
38 -12 7 -4 19 -5 27 -2 8 3 17 0 21 -6 5 -7 2 -8 -7 -3 -10 6 -11 5 -4 -3 6
-6 26 -13 45 -15 19 -2 50 -10 68 -19 20 -10 30 -12 26 -5 -3 7 2 3 10 -7 12
-15 16 -16 16 -5 1 10 4 9 11 -4 8 -14 14 -16 25 -6 10 8 14 8 14 0 0 -6 9
-11 21 -11 11 0 18 -3 16 -7 -3 -5 11 -9 30 -10 19 -1 41 -7 49 -14 8 -6 14
-8 14 -4 0 4 6 2 13 -4 8 -6 17 -8 21 -4 4 4 11 1 16 -7 7 -11 10 -12 10 -2 0
7 5 10 10 7 6 -4 8 -10 6 -14 -3 -4 4 -8 15 -8 11 -1 17 2 14 7 -3 6 1 7 9 4
9 -3 14 -9 11 -13 -2 -4 12 -7 31 -6 19 1 37 -2 40 -7 3 -4 10 -6 15 -3 5 4 9
2 9 -4 0 -7 8 -7 25 -1 20 7 25 6 25 -5 0 -8 5 -15 10 -15 6 0 10 8 10 18 1
16 1 16 11 0 5 -10 15 -18 20 -18 6 0 8 4 5 9 -4 5 3 7 14 4 11 -3 17 -10 14
-15 -4 -6 3 -5 15 1 16 9 21 9 21 -1 0 -9 3 -9 12 0 7 7 17 8 30 1 12 -7 18
-6 18 1 0 6 5 8 11 5 16 -11 59 -13 53 -3 -3 5 6 7 20 4 16 -3 26 0 27 7 0 7
4 3 9 -8 6 -13 9 -15 9 -5 1 10 13 16 39 17 34 2 38 0 38 -22 0 -14 -3 -25 -6
-25 -4 0 -6 -16 -5 -35 1 -19 -1 -35 -6 -35 -4 0 -6 -11 -4 -25 1 -14 -1 -25
-4 -25 -4 0 -7 -17 -8 -37 0 -21 -6 -39 -12 -41 -9 -3 -9 -7 0 -18 6 -8 7 -14
2 -14 -5 0 -9 -13 -8 -30 1 -16 -1 -30 -5 -30 -4 0 -7 -6 -7 -12 -4 -52 -8
-75 -16 -85 -6 -9 -5 -13 4 -13 11 0 11 -2 -1 -10 -8 -5 -12 -10 -8 -10 4 0 3
-11 -2 -25 -6 -15 -6 -26 1 -30 5 -4 6 -11 3 -17 -4 -6 -2 -8 4 -4 5 3 13 0
15 -6 3 -7 6 -4 7 7 1 19 1 19 11 2 10 -17 12 -17 29 -2 14 12 20 13 26 4 4
-8 3 -10 -4 -5 -17 10 -15 1 4 -14 12 -11 15 -11 12 1 -2 10 5 13 26 11 21 -3
26 0 21 10 -3 7 4 2 16 -12 15 -17 20 -19 16 -7 -8 21 6 22 27 1 9 -8 16 -13
16 -9 0 4 7 -1 16 -10 9 -9 14 -25 11 -35 -3 -11 -2 -20 3 -20 4 0 7 -11 6
-25 0 -14 -4 -25 -7 -25 -3 0 -4 -11 -1 -25 2 -14 0 -25 -5 -25 -5 0 -9 -10
-8 -22 2 -13 -4 -33 -11 -45 -9 -14 -10 -24 -4 -28 6 -4 4 -12 -5 -21 -8 -9
-13 -20 -10 -25 4 -5 0 -9 -7 -9 -9 0 -9 -3 2 -10 8 -5 10 -10 5 -10 -6 0 -19
-20 -29 -45 -11 -25 -24 -45 -29 -45 -6 0 -7 -3 -4 -7 4 -3 2 -12 -4 -20 -6
-7 -8 -13 -5 -13 4 0 0 -7 -8 -16 -9 -8 -14 -20 -11 -25 4 -5 2 -9 -3 -9 -8 0
-27 -48 -22 -58 1 -2 -5 -9 -14 -15 -8 -7 -16 -21 -18 -32 -2 -11 -6 -22 -9
-25 -10 -8 -83 -164 -81 -172 1 -5 -3 -8 -9 -8 -5 0 -7 -4 -4 -10 3 -5 1 -10
-5 -10 -7 0 -9 -7 -6 -16 3 -8 2 -12 -4 -9 -6 3 -10 -3 -10 -14 0 -10 -5 -21
-10 -23 -6 -2 -12 -13 -13 -26 0 -12 -7 -22 -15 -22 -7 0 -11 -4 -8 -9 7 -10
-16 -61 -27 -61 -5 0 -5 -4 -2 -10 3 -6 1 -10 -4 -10 -6 0 -11 -3 -10 -7 2
-16 -14 -53 -23 -53 -5 0 -6 -4 -3 -10 3 -5 1 -10 -5 -10 -6 0 -9 -4 -5 -9 3
-5 0 -13 -6 -16 -5 -4 -8 -13 -5 -21 3 -8 0 -13 -7 -11 -7 1 -11 -4 -9 -10 1
-7 -2 -13 -7 -13 -8 0 -24 -37 -22 -52 1 -5 -4 -8 -11 -8 -6 0 -9 -3 -6 -6 4
-3 -2 -14 -13 -25 -11 -11 -17 -25 -13 -31 4 -6 3 -9 -2 -5 -5 3 -18 -12 -28
-34 -11 -21 -23 -39 -28 -39 -5 0 -6 -4 -3 -10 3 -5 2 -10 -4 -10 -5 0 -13 -9
-16 -20 -4 -11 -11 -17 -17 -14 -6 4 -9 1 -6 -6 2 -7 -16 -34 -40 -59 -25 -25
-43 -46 -41 -46 2 0 -14 -18 -36 -40 -21 -22 -35 -33 -30 -25 5 8 -6 0 -24
-17 -18 -18 -37 -33 -42 -33 -6 0 -7 -6 -3 -12 4 -7 4 -10 -1 -6 -9 9 -65 -19
-83 -41 -8 -9 -11 -10 -7 -3 3 6 1 12 -4 12 -6 0 -11 -4 -11 -9 0 -6 -9 -8
-20 -6 -12 2 -26 -5 -35 -18 -9 -14 -15 -16 -15 -7 0 10 -3 11 -11 3 -6 -6
-18 -9 -27 -6 -9 4 -13 2 -9 -4 3 -5 0 -10 -8 -10 -8 0 -12 4 -9 9 3 4 0 8 -5
8 -6 0 -11 -5 -11 -12 0 -6 -3 -9 -6 -5 -3 3 -16 2 -29 -3 -14 -5 -26 -5 -34
3 -8 8 -11 7 -11 -4 0 -12 -2 -12 -10 1 -8 12 -10 12 -10 1 0 -11 -3 -11 -15
-1 -12 10 -15 10 -15 -1 0 -11 -2 -11 -10 1 -7 11 -10 12 -10 2 0 -10 -4 -10
-16 2 -16 17 -29 22 -20 8 2 -4 -4 -8 -14 -8 -12 0 -16 5 -12 16 5 13 3 13
-10 2 -10 -8 -18 -9 -22 -3 -4 6 -14 7 -23 4 -11 -4 -14 -3 -9 5 5 8 2 10 -8
6 -9 -3 -16 -1 -16 5 0 6 -3 10 -7 10 -23 -4 -43 2 -38 11 3 6 -5 10 -18 10
-14 0 -28 7 -31 16 -3 9 -12 14 -20 11 -7 -3 -19 4 -27 15 -8 11 -24 24 -36
29 -13 5 -23 15 -23 24 0 8 -6 14 -12 13 -7 -2 -12 3 -10 10 1 6 -2 12 -8 12
-13 0 -57 45 -87 91 -14 21 -30 39 -34 39 -5 0 -9 4 -9 10 0 5 -8 19 -17 30
-10 11 -17 23 -15 26 2 3 -5 13 -15 22 -10 9 -19 23 -21 31 -2 8 -13 23 -24
33 -14 12 -17 18 -7 18 10 1 9 4 -3 11 -10 5 -18 17 -18 24 0 8 -4 15 -10 15
-5 0 -10 9 -10 20 0 11 -4 20 -10 20 -5 0 -10 6 -10 14 0 7 -7 19 -15 26 -8 6
-14 15 -13 18 2 20 -3 32 -12 27 -6 -3 -7 1 -4 9 4 10 1 16 -7 16 -7 0 -9 3
-6 7 4 3 -1 12 -11 20 -9 8 -11 12 -4 8 6 -3 12 -1 12 4 0 6 -5 11 -11 11 -5
0 -8 4 -5 9 3 5 -1 11 -9 15 -8 3 -15 15 -15 26 0 11 -4 20 -10 20 -5 0 -10 7
-10 16 0 8 -7 22 -15 31 -8 8 -13 19 -10 24 4 5 1 9 -4 9 -6 0 -11 9 -11 21 0
11 -4 18 -8 15 -4 -2 -9 5 -9 17 -1 12 -7 23 -13 25 -5 2 -10 10 -10 19 0 8
-7 21 -15 30 -8 8 -13 19 -10 24 4 5 1 9 -4 9 -6 0 -11 7 -11 15 0 8 -6 15
-12 15 -10 0 -10 2 0 9 11 7 10 9 -3 15 -9 3 -13 10 -10 16 3 5 1 10 -4 10 -6
0 -11 9 -11 20 0 11 -4 20 -10 20 -5 0 -10 7 -10 15 0 8 -5 15 -11 15 -5 0 -8
4 -4 9 3 5 1 12 -5 16 -6 4 -8 11 -5 16 4 5 -1 12 -9 15 -9 3 -14 10 -11 14 3
4 -4 19 -15 33 -11 14 -20 35 -20 47 0 11 -4 18 -10 15 -5 -3 -10 1 -10 10 0
9 -8 28 -17 42 -11 17 -13 24 -5 19 11 -7 11 -4 0 15 -7 13 -15 26 -18 29 -6
6 -12 30 -13 48 0 6 -5 12 -11 12 -6 0 -4 5 4 10 8 5 10 10 4 10 -6 0 -11 6
-11 13 0 6 -4 25 -8 41 -6 23 -5 27 6 21 8 -5 6 1 -4 12 -13 14 -15 23 -7 28
8 5 7 11 -2 23 -7 9 -8 13 -2 9 7 -4 11 5 12 25 0 17 5 34 10 37 5 3 14 16 21
29 7 12 16 20 20 17 5 -3 11 2 15 10 3 8 10 15 16 15 6 0 8 -6 5 -12 -4 -7 1
-4 9 6 12 15 16 16 16 5 0 -11 2 -11 8 -1 5 8 16 10 27 6 13 -5 16 -4 11 4 -4
7 -2 12 3 12 6 0 11 -6 11 -12 0 -9 4 -8 10 2 6 10 10 11 10 3 0 -8 11 -11 30
-9 30 3 55 16 31 16 -8 0 -9 5 -2 19 6 10 8 21 4 24 -3 4 -6 26 -7 49 -1 24
-4 48 -7 53 -2 6 -4 29 -4 53 0 23 -3 42 -8 42 -4 0 -5 5 -1 12 9 14 11 77 2
72 -4 -2 -9 0 -13 6 -3 5 -1 10 6 10 9 0 9 3 0 14 -8 10 -9 16 -1 21 6 3 7 12
3 18 -8 12 -9 23 -12 115 -1 40 -4 51 -13 46 -9 -5 -9 -2 1 9 10 13 10 17 1
17 -9 0 -10 3 -1 13 6 8 8 17 5 20 -4 3 0 13 8 21 12 11 18 12 27 3 10 -9 12
-9 9 3 -2 10 6 16 25 18 15 2 25 8 22 13 -4 5 2 9 12 9 11 0 24 5 31 12 9 9
12 9 12 -2 1 -12 3 -12 13 1 7 9 20 15 30 13 9 -1 17 2 17 6 0 5 8 9 18 9 44
2 62 6 62 13 0 4 10 6 22 4 13 -1 36 3 53 10 38 17 45 17 46 2z"/>
<path d="M3730 1558 c0 -7 -14 -22 -30 -33 -16 -11 -30 -26 -30 -33 0 -7 -4
-11 -9 -7 -5 3 -16 -2 -25 -11 -9 -8 -20 -12 -26 -9 -6 4 -9 1 -8 -7 2 -7 -3
-12 -9 -10 -7 1 -13 -3 -13 -9 0 -5 -4 -7 -10 -4 -5 3 -10 2 -10 -3 0 -9 -47
-36 -65 -37 -5 0 -16 -6 -23 -12 -7 -7 -20 -13 -28 -13 -9 0 -22 -7 -31 -15
-8 -8 -19 -13 -24 -10 -5 4 -9 0 -9 -7 0 -9 -3 -9 -10 2 -8 13 -10 12 -10 -4
0 -15 -3 -16 -14 -7 -11 10 -17 8 -25 -6 -6 -10 -11 -14 -11 -9 0 4 -12 1 -26
-9 -14 -9 -34 -15 -45 -12 -10 3 -19 1 -21 -5 -2 -5 -10 -10 -18 -11 -8 -2
-19 -5 -25 -8 -5 -4 -18 -5 -28 -3 -12 1 -17 -2 -14 -10 4 -10 -3 -13 -24 -11
-16 1 -32 -2 -35 -7 -4 -6 -10 -5 -15 3 -7 11 -9 10 -9 -5 0 -12 -5 -16 -15
-13 -8 4 -17 2 -20 -3 -4 -6 -11 -10 -16 -10 -6 0 -7 5 -3 11 4 8 0 8 -15 0
-11 -7 -21 -16 -21 -21 0 -12 -22 -9 -32 5 -5 6 -8 5 -8 -4 0 -8 -6 -11 -16
-7 -8 3 -13 2 -10 -3 3 -5 -1 -12 -10 -15 -10 -4 -13 -2 -8 7 5 9 4 9 -7 0 -7
-7 -25 -13 -40 -13 -15 0 -31 -5 -35 -12 -5 -7 -3 -8 6 -3 9 5 11 4 6 -3 -5
-9 -13 -9 -27 -2 -14 8 -19 7 -19 -1 0 -6 -9 -9 -20 -6 -11 3 -18 1 -15 -3 3
-5 1 -11 -4 -14 -5 -4 -12 2 -14 11 -4 16 -5 16 -6 -1 -1 -13 -6 -17 -21 -13
-11 3 -20 1 -20 -5 0 -6 -6 -8 -14 -5 -8 3 -17 -2 -21 -11 -5 -14 -7 -14 -15
-2 -6 8 -10 10 -10 5 0 -6 -10 -11 -22 -12 -11 -1 -25 -8 -29 -15 -7 -10 -9
-10 -9 1 0 11 -4 9 -15 -5 -10 -14 -14 -15 -15 -5 0 11 -4 10 -13 -4 -8 -10
-19 -15 -24 -12 -6 4 -14 0 -17 -9 -5 -13 -9 -14 -20 -5 -10 9 -15 8 -19 -3
-4 -9 -15 -13 -27 -11 -16 3 -20 0 -16 -11 3 -8 2 -12 -3 -9 -5 3 -13 1 -16
-5 -4 -6 -16 -8 -27 -4 -13 4 -18 2 -14 -4 3 -6 -4 -14 -16 -18 -12 -3 -28
-13 -36 -20 -7 -8 -18 -11 -24 -8 -6 4 -8 2 -4 -4 3 -6 -3 -13 -14 -17 -11 -4
-18 -11 -15 -16 4 -5 -1 -9 -9 -9 -8 0 -24 -12 -35 -26 -13 -16 -25 -23 -33
-18 -7 4 -10 4 -6 0 8 -10 -14 -36 -24 -29 -4 2 -5 -4 -1 -13 4 -12 3 -15 -5
-10 -7 4 -12 1 -12 -9 0 -9 -4 -13 -10 -10 -5 3 -10 2 -10 -3 0 -8 -9 -21 -49
-68 -5 -7 -7 -15 -4 -18 4 -3 0 -6 -7 -6 -7 0 -11 -3 -8 -6 3 -3 -5 -17 -18
-31 -13 -14 -23 -28 -22 -32 2 -9 -25 -65 -36 -72 -5 -4 -6 -11 -2 -17 3 -5
-1 -13 -10 -16 -9 -4 -14 -13 -10 -21 3 -8 1 -15 -4 -15 -6 0 -9 -3 -9 -7 1
-5 0 -11 -1 -15 -4 -13 -7 -27 -9 -39 0 -5 -4 -8 -8 -6 -5 3 -9 -9 -10 -26 -1
-17 -8 -34 -15 -39 -7 -4 -9 -8 -4 -8 5 0 3 -6 -3 -13 -6 -8 -8 -17 -4 -20 3
-4 0 -13 -7 -22 -7 -8 -9 -15 -5 -15 4 0 3 -6 -3 -12 -6 -7 -11 -16 -11 -20
-1 -5 -1 -9 -2 -10 0 -2 -3 -16 -5 -33 -3 -16 -9 -32 -12 -35 -4 -3 -7 -17 -7
-32 1 -16 -3 -28 -7 -28 -4 0 -8 -5 -8 -11 0 -5 6 -7 13 -3 7 4 6 -1 -3 -12
-9 -10 -15 -26 -15 -34 1 -22 15 -41 26 -35 17 11 50 14 44 4 -4 -5 1 -9 10
-9 9 0 14 3 12 8 -3 4 6 8 20 9 15 0 21 -2 14 -6 -6 -4 43 -7 109 -6 66 1 123
5 127 8 3 4 12 2 20 -4 9 -9 13 -8 13 0 0 6 5 11 11 11 5 0 8 -4 5 -8 -6 -9
261 -8 270 1 4 4 13 2 21 -4 9 -9 13 -8 13 0 0 6 5 11 11 11 5 0 8 -4 5 -8 -6
-9 261 -8 270 1 4 4 13 2 21 -4 9 -9 13 -8 13 0 0 6 5 11 11 11 5 0 8 -4 5 -8
-6 -9 261 -8 270 1 4 4 13 2 21 -4 9 -9 13 -8 13 0 0 6 5 11 11 11 5 0 8 -4 5
-8 -6 -9 261 -8 270 1 4 4 13 2 21 -4 9 -9 13 -8 13 0 0 6 5 11 11 11 5 0 8
-4 5 -8 -6 -9 261 -8 270 1 4 4 13 2 21 -4 9 -9 13 -8 13 0 0 6 5 11 11 11 5
0 8 -4 5 -8 -6 -9 261 -8 270 1 4 4 13 2 21 -4 9 -9 13 -8 13 0 0 6 5 11 11
11 5 0 8 -4 5 -8 -6 -9 261 -8 270 1 4 4 13 2 21 -4 9 -9 13 -8 13 0 0 6 5 11
11 11 5 0 8 -4 5 -8 -6 -9 261 -8 270 1 4 4 13 2 21 -4 9 -9 13 -8 13 0 0 6 5
11 11 11 5 0 8 -4 5 -8 -6 -9 261 -8 270 1 4 4 13 2 21 -4 9 -9 13 -8 13 0 0
6 5 11 11 11 5 0 8 -4 5 -8 -6 -9 261 -8 270 1 4 4 13 2 21 -4 9 -9 13 -8 13
0 0 6 5 11 11 11 5 0 8 -4 5 -8 -6 -9 261 -8 270 1 4 4 13 2 21 -4 9 -9 13 -8
13 0 0 6 5 11 11 11 5 0 8 -4 5 -8 -6 -9 261 -8 270 1 4 4 13 2 21 -4 9 -9 13
-8 13 0 0 6 5 11 11 11 5 0 8 -4 5 -8 -6 -9 261 -8 270 1 4 4 13 2 21 -4 9 -9
13 -8 13 0 0 6 5 11 11 11 5 0 8 -4 5 -8 -6 -9 261 -8 270 1 4 4 13 2 21 -4 9
-9 13 -8 13 0 0 6 5 11 11 11 5 0 8 -4 5 -8 -6 -9 261 -8 270 1 4 4 13 2 21
-4 9 -9 13 -8 13 0 0 6 5 11 11 11 5 0 8 -4 5 -8 -6 -9 261 -8 270 1 4 4 13 2
21 -4 9 -9 13 -8 13 0 0 6 5 11 11 11 5 0 8 -3 5 -8 -2 -4 13 -7 34 -7 21 0
36 3 34 7 -3 5 0 8 5 8 6 0 11 -4 11 -10 0 -5 5 -10 11 -10 5 0 7 5 4 10 -3 6
-1 10 4 10 6 0 10 11 9 24 -1 14 -6 22 -11 19 -5 -3 -7 0 -5 8 3 8 -1 29 -9
47 -11 27 -11 32 -1 26 8 -5 6 3 -5 19 -12 19 -14 27 -5 27 8 1 5 7 -6 15 -14
11 -16 15 -5 15 11 0 12 2 1 9 -8 4 -13 11 -13 15 1 3 1 7 0 9 0 1 -3 13 -5
27 -2 13 -11 35 -19 47 -12 18 -12 23 -3 23 10 0 9 3 -1 9 -8 5 -11 16 -8 26
4 9 3 14 -2 11 -7 -5 -35 63 -36 89 -1 6 -6 9 -12 8 -7 -2 -10 6 -8 17 2 11 0
20 -6 20 -5 0 -9 9 -9 20 0 11 -5 20 -11 20 -5 0 -7 4 -4 10 3 5 1 10 -5 10
-6 0 -8 4 -5 10 3 5 1 10 -4 10 -6 0 -11 7 -11 15 0 9 -9 25 -20 37 -11 12
-20 28 -20 35 0 7 -4 13 -10 13 -5 0 -10 7 -10 16 0 8 -4 12 -10 9 -5 -3 -10
3 -10 15 0 12 -4 18 -10 15 -5 -3 -10 1 -10 10 0 9 -4 14 -9 11 -5 -3 -11 4
-14 15 -3 12 -10 18 -16 14 -10 -6 -16 8 -12 28 1 5 -3 6 -9 2 -5 -3 -13 1
-16 9 -3 9 -12 16 -19 16 -8 0 -17 10 -20 21 -5 14 -10 18 -14 10 -5 -7 -12
-3 -21 13 -7 14 -17 23 -22 20 -4 -3 -8 0 -8 5 0 6 -6 11 -14 11 -7 0 -19 7
-26 15 -7 9 -19 14 -27 11 -8 -3 -11 -1 -8 4 3 6 -1 10 -9 10 -9 0 -16 5 -16
11 0 6 -7 8 -16 5 -8 -3 -13 -2 -10 3 6 10 -24 25 -32 16 -3 -3 1 -5 8 -5 7 0
10 -3 7 -7 -4 -3 -19 4 -34 18 -14 13 -22 17 -18 9 6 -11 3 -10 -12 3 -11 9
-23 14 -26 10 -4 -3 -7 -1 -7 7 0 10 -4 10 -17 -1 -11 -10 -14 -10 -9 -1 7 12
4 13 -31 15 -10 1 -23 8 -29 16 -6 8 -16 11 -22 7 -6 -3 -13 -2 -17 4 -3 5
-15 10 -26 10 -14 0 -18 4 -13 13 6 9 5 9 -8 -1 -12 -10 -20 -9 -40 7 -19 15
-28 17 -36 9 -8 -8 -12 -9 -12 -1 0 6 -7 14 -16 17 -8 3 -12 2 -9 -4 10 -17
-7 -11 -22 8 -8 10 -11 11 -7 2 7 -12 5 -13 -8 -3 -8 7 -27 14 -42 15 -14 1
-26 6 -26 11 0 5 -8 3 -17 -4 -11 -10 -14 -10 -9 -1 4 7 1 12 -9 12 -10 0 -14
5 -9 13 5 9 4 9 -6 0 -11 -10 -17 -9 -32 4 -18 16 -19 16 -13 -3 6 -18 6 -18
-9 0 -8 10 -19 15 -25 11 -6 -3 -11 -1 -11 5 0 6 -5 8 -11 5 -5 -4 -19 1 -31
12 -23 20 -27 20 -39 1 -7 -10 -9 -10 -9 0 0 6 -7 12 -16 12 -9 0 -12 5 -8 13
5 8 2 8 -9 -2 -13 -11 -17 -11 -17 -1 0 8 -3 10 -7 7 -3 -4 -17 0 -31 9 -13 9
-21 11 -18 5 5 -7 1 -9 -8 -5 -9 3 -14 10 -11 14 3 5 -4 6 -14 3 -12 -3 -26 3
-37 16 -13 15 -21 18 -31 9 -9 -7 -13 -7 -13 1 0 6 -12 11 -26 11 -17 0 -23 4
-18 13 4 6 4 9 -1 5 -4 -4 -15 -2 -23 5 -13 9 -14 9 -8 0 10 -18 2 -16 -24 7
-25 22 -45 27 -34 9 3 -6 -5 -3 -20 6 -14 10 -26 21 -26 26 0 5 -3 8 -7 8 -20
-3 -34 3 -54 24 -12 12 -19 16 -15 10 10 -17 -2 -16 -19 1 -8 7 -11 17 -7 21
4 5 2 5 -5 1 -6 -3 -14 -2 -18 4 -4 6 -11 8 -16 5 -5 -4 -9 -1 -9 4 0 6 -7 11
-16 11 -9 0 -12 5 -8 12 5 7 2 9 -9 5 -11 -4 -14 -2 -11 7 3 8 -4 16 -16 19
-12 3 -19 10 -16 15 3 6 -1 12 -9 16 -16 6 -29 -9 -20 -24 3 -5 2 -10 -3 -10
-6 0 -13 -7 -16 -16 -3 -9 -2 -12 4 -9 6 4 1 -10 -10 -29 -11 -20 -20 -38 -20
-41 0 -3 -1 -7 -1 -10 -1 -3 -2 -8 -3 -13 -4 -23 -41 -102 -49 -102 -4 0 -6
-4 -2 -9 3 -5 -2 -17 -11 -25 -8 -9 -12 -16 -8 -16 3 0 1 -6 -5 -13 -6 -8 -7
-18 -3 -22 4 -5 2 -5 -4 -2 -11 7 -29 -19 -25 -36 0 -4 -6 -10 -14 -13 -8 -3
-12 -10 -9 -15 3 -5 -2 -9 -11 -9 -9 0 -14 -4 -11 -9 6 -10 -103 -127 -115
-124 -5 2 -8 0 -6 -5 1 -4 -1 -7 -4 -7 -10 0 -39 -33 -39 -44 0 -6 -3 -10 -7
-10 -22 4 -44 -2 -39 -10 3 -5 -12 -16 -35 -25 -27 -11 -38 -20 -33 -29 5 -8
2 -7 -9 2 -11 8 -17 9 -17 2 0 -6 -11 -13 -25 -17 -14 -3 -25 -11 -25 -18 0
-6 -5 -4 -10 4 -7 11 -10 11 -10 2 0 -7 -5 -10 -11 -7 -6 4 -16 -1 -23 -11
-10 -12 -15 -14 -20 -5 -6 9 -12 7 -23 -6 -8 -10 -11 -12 -7 -4 6 11 3 13 -12
6 -10 -4 -28 -7 -39 -7 -11 1 -23 -4 -27 -11 -6 -9 -8 -8 -8 2 0 11 -3 11 -15
1 -11 -9 -15 -9 -15 -1 0 7 -5 9 -12 4 -20 -12 -39 -12 -32 -1 5 7 2 8 -7 2
-18 -11 -40 -14 -35 -5 3 4 -14 7 -37 8 -59 2 -101 11 -105 22 -2 5 -12 7 -22
4 -11 -3 -20 -1 -20 5 0 5 -7 13 -16 16 -9 3 -12 2 -8 -5 3 -6 -3 -5 -15 3
-12 7 -21 16 -21 20 0 4 -7 5 -15 2 -8 -4 -15 -1 -15 5 0 6 -7 8 -15 5 -10 -4
-15 0 -15 11 0 9 -4 14 -9 10 -5 -3 -16 1 -24 9 -8 8 -17 12 -21 9 -3 -4 -6
-1 -6 5 0 6 -16 19 -35 28 -20 9 -33 19 -30 22 2 3 -5 10 -18 17 -12 6 -21 17
-19 24 1 7 -2 10 -8 6 -5 -3 -10 -1 -10 5 0 6 -4 8 -10 5 -5 -3 -10 0 -10 7 0
8 -9 20 -20 28 -11 8 -20 20 -20 28 0 7 -4 10 -10 7 -5 -3 -10 1 -10 10 0 9
-4 13 -10 10 -5 -3 -10 3 -10 14 0 12 -4 21 -9 21 -6 0 -20 18 -32 40 -13 22
-26 40 -31 40 -4 0 -7 3 -7 8 4 22 -2 42 -11 37 -5 -3 -10 -1 -10 5 0 6 -9 30
-20 52 -11 23 -20 48 -20 55 0 7 -5 13 -11 13 -5 0 -7 5 -4 10 3 6 0 10 -7 10
-9 0 -9 3 2 10 11 7 11 10 2 10 -7 0 -10 5 -7 10 3 6 1 10 -4 10 -6 0 -11 8
-11 18 0 10 -6 24 -12 31 -10 11 -10 13 0 7 6 -4 12 -5 12 -2 0 3 -9 10 -20
16 -15 8 -20 8 -20 -2z"/>
</g>
</svg>
